<svg width="46" height="46" viewBox="0 0 46 46" fill="none" xmlns="http://www.w3.org/2000/svg">
<path fill-rule="evenodd" clip-rule="evenodd" d="M30.4999 2.5V5.39076V5.44699V6.54546V8.27751C30.4999 9.04731 31.3332 9.52844 31.9999 9.14354L33.4999 8.27751L34.4512 7.72827L34.4999 7.70016L37.0032 6.25488C37.9598 5.7026 39.183 6.03035 39.7353 6.98693L45.2353 16.5132C45.7876 17.4698 45.4598 18.693 44.5032 19.2453L41.9997 20.6907L41.951 20.7188L40.9997 21.268L39.4997 22.134C38.833 22.5189 38.833 23.4812 39.4997 23.8661L40.9997 24.7321L41.951 25.2814L41.9997 25.3095L44.5032 26.7549C45.4598 27.3072 45.7876 28.5303 45.2353 29.4869L39.7353 39.0132C39.183 39.9698 37.9598 40.2975 37.0032 39.7453L34.4999 38.3L34.4512 38.2719L33.4999 37.7226L31.9999 36.8566C31.3332 36.4717 30.4999 36.9528 30.4999 37.7226V39.4547V40.5531V40.6094V43.5C30.4999 44.6046 29.6045 45.5 28.4999 45.5H17.4999C16.3954 45.5 15.4999 44.6046 15.4999 43.5V40.6091V40.5529V39.4544V37.7224C15.4999 36.9526 14.6666 36.4714 13.9999 36.8563L12.4999 37.7224L11.5486 38.2716L11.4999 38.2997L8.99618 39.7453C8.0396 40.2975 6.81642 39.9698 6.26413 39.0132L0.764133 29.4869C0.211848 28.5303 0.539599 27.3072 1.49618 26.7549L3.99971 25.3095L4.0484 25.2814L4.99971 24.7321L6.49971 23.8661C7.16637 23.4812 7.16637 22.5189 6.49971 22.134L4.99971 21.268L4.0484 20.7188L3.99971 20.6907L1.49619 19.2453C0.539601 18.693 0.21185 17.4698 0.764135 16.5132L6.26413 6.98693C6.81642 6.03034 8.0396 5.70259 8.99618 6.25488L11.4999 7.70041L11.5486 7.72853L12.4999 8.27777L13.9999 9.14379C14.6666 9.52869 15.4999 9.04757 15.4999 8.27777V6.54571V5.44724V5.39101V2.5C15.4999 1.39543 16.3954 0.5 17.4999 0.5H28.4999C29.6045 0.5 30.4999 1.39543 30.4999 2.5ZM19.4999 8.27777V4.5H26.4999V8.27751C26.4999 12.1265 30.6666 14.5321 33.9999 12.6076L37.2712 10.719L40.7712 16.7812L37.4997 18.6699C34.1664 20.5944 34.1664 25.4057 37.4997 27.3302L40.7712 29.219L37.2712 35.2812L33.9999 33.3925C30.6666 31.468 26.4999 33.8736 26.4999 37.7226V41.5H19.4999V37.7224C19.4999 33.8734 15.3333 31.4677 11.9999 33.3922L8.72823 35.2812L5.22823 29.219L8.49971 27.3302C11.833 25.4057 11.833 20.5944 8.49971 18.6699L5.22824 16.7812L8.72823 10.719L11.9999 12.6079C15.3332 14.5324 19.4999 12.1268 19.4999 8.27777ZM27.9998 23C27.9998 25.7614 25.7613 28 22.9998 28C20.2384 28 17.9998 25.7614 17.9998 23C17.9998 20.2386 20.2384 18 22.9998 18C25.7613 18 27.9998 20.2386 27.9998 23ZM31.9998 23C31.9998 27.9706 27.9704 32 22.9998 32C18.0293 32 13.9998 27.9706 13.9998 23C13.9998 18.0294 18.0293 14 22.9998 14C27.9704 14 31.9998 18.0294 31.9998 23Z" fill="#FFBE5C"/>
</svg>
