<svg width="43" height="43" viewBox="0 0 43 43" fill="none" xmlns="http://www.w3.org/2000/svg">
<mask id="path-1-inside-1_49399_835" fill="white">
<path fill-rule="evenodd" clip-rule="evenodd" d="M26.9879 6.5H33.5C35.1568 6.5 36.5 7.84314 36.5 9.5V16.0121C39.9956 17.2476 42.5 20.5813 42.5 24.5C42.5 28.4187 39.9956 31.7524 36.5 32.9879V39.5C36.5 41.1568 35.1568 42.5 33.5 42.5H22.7L22.0883 39.4417C21.7462 37.7312 20.2444 36.5 18.5 36.5C16.7556 36.5 15.2537 37.7312 14.9116 39.4417L14.3 42.5H3.5C1.84314 42.5 0.5 41.1568 0.5 39.5V28.7L3.55826 28.0883C5.26875 27.7462 6.5 26.2444 6.5 24.5C6.5 22.7556 5.26875 21.2537 3.55826 20.9116L0.5 20.3V9.5C0.5 7.84314 1.84315 6.5 3.5 6.5H10.0121C11.2476 3.00442 14.5813 0.5 18.5 0.5C22.4187 0.5 25.7524 3.00442 26.9879 6.5Z"/>
</mask>
<path d="M26.9879 6.5L23.2165 7.83298L24.1592 10.5H26.9879V6.5ZM36.5 16.0121H32.5V18.8408L35.167 19.7835L36.5 16.0121ZM36.5 32.9879L35.167 29.2165L32.5 30.1592V32.9879H36.5ZM22.7 42.5L18.7777 43.2845L19.4208 46.5H22.7V42.5ZM22.0883 39.4417L18.166 40.2262L18.166 40.2262L22.0883 39.4417ZM14.9116 39.4417L18.834 40.2262L18.834 40.2262L14.9116 39.4417ZM14.3 42.5V46.5H17.5792L18.2223 43.2845L14.3 42.5ZM0.5 28.7L-0.284466 24.7777L-3.5 25.4208V28.7H0.5ZM3.55826 28.0883L2.7738 24.166L2.77379 24.166L3.55826 28.0883ZM3.55826 20.9116L2.77379 24.834H2.7738L3.55826 20.9116ZM0.5 20.3H-3.5V23.5792L-0.284466 24.2223L0.5 20.3ZM10.0121 6.5V10.5H12.8408L13.7835 7.83298L10.0121 6.5ZM33.5 2.5H26.9879V10.5H33.5V2.5ZM40.5 9.5C40.5 5.63401 37.366 2.5 33.5 2.5V10.5C32.9477 10.5 32.5 10.0523 32.5 9.5H40.5ZM40.5 16.0121V9.5H32.5V16.0121H40.5ZM46.5 24.5C46.5 18.8335 42.8767 14.0235 37.833 12.2408L35.167 19.7835C37.1144 20.4718 38.5 22.3292 38.5 24.5H46.5ZM37.833 36.7592C42.8767 34.9765 46.5 30.1665 46.5 24.5H38.5C38.5 26.6708 37.1144 28.5282 35.167 29.2165L37.833 36.7592ZM40.5 39.5V32.9879H32.5V39.5H40.5ZM33.5 46.5C37.366 46.5 40.5 43.366 40.5 39.5H32.5C32.5 38.9477 32.9477 38.5 33.5 38.5V46.5ZM22.7 46.5H33.5V38.5H22.7V46.5ZM18.166 40.2262L18.7777 43.2845L26.6223 41.7155L26.0107 38.6573L18.166 40.2262ZM18.5 40.5C18.3376 40.5 18.1979 40.3854 18.166 40.2262L26.0107 38.6573C25.2946 35.0771 22.1511 32.5 18.5 32.5V40.5ZM18.834 40.2262C18.8021 40.3854 18.6623 40.5 18.5 40.5V32.5C14.8489 32.5 11.7054 35.0771 10.9893 38.6573L18.834 40.2262ZM18.2223 43.2845L18.834 40.2262L10.9893 38.6573L10.3777 41.7155L18.2223 43.2845ZM3.5 46.5H14.3V38.5H3.5V46.5ZM-3.5 39.5C-3.5 43.366 -0.365996 46.5 3.5 46.5V38.5C4.05228 38.5 4.5 38.9477 4.5 39.5H-3.5ZM-3.5 28.7V39.5H4.5V28.7H-3.5ZM2.77379 24.166L-0.284466 24.7777L1.28447 32.6223L4.34272 32.0107L2.77379 24.166ZM2.5 24.5C2.5 24.3376 2.61459 24.1979 2.7738 24.166L4.34272 32.0107C7.92292 31.2946 10.5 28.1511 10.5 24.5H2.5ZM2.7738 24.834C2.61459 24.8021 2.5 24.6623 2.5 24.5H10.5C10.5 20.8489 7.92292 17.7054 4.34272 16.9893L2.7738 24.834ZM-0.284466 24.2223L2.77379 24.834L4.34272 16.9893L1.28447 16.3777L-0.284466 24.2223ZM-3.5 9.5V20.3H4.5V9.5H-3.5ZM3.5 2.5C-0.365991 2.5 -3.5 5.634 -3.5 9.5H4.5C4.5 10.0523 4.05228 10.5 3.5 10.5V2.5ZM10.0121 2.5H3.5V10.5H10.0121V2.5ZM18.5 -3.5C12.8335 -3.5 8.02347 0.123241 6.24076 5.16701L13.7835 7.83298C14.4718 5.8856 16.3292 4.5 18.5 4.5V-3.5ZM30.7592 5.16701C28.9765 0.123243 24.1665 -3.5 18.5 -3.5V4.5C20.6708 4.5 22.5282 5.8856 23.2165 7.83298L30.7592 5.16701Z" fill="#FFBE5C" mask="url(#path-1-inside-1_49399_835)"/>
</svg>
