<svg width="48" height="41" viewBox="0 0 48 41" fill="none" xmlns="http://www.w3.org/2000/svg">
<path fill-rule="evenodd" clip-rule="evenodd" d="M26.179 22L44 14.3624L44 12.1376L26.179 4.5L21.821 4.5L4 12.1376V12.281C4.15929 12.5681 4.25 12.8984 4.25 13.25V14.4696L21.821 22H26.179ZM4.25 18.8214L8.99982 20.8571V21.4718V31.7777V33.0137C8.99982 33.7713 9.42783 34.4638 10.1054 34.8026L11.2103 35.355L11.211 35.3554L20.912 40.2058C22.8588 41.1792 25.1476 41.1916 27.1048 40.2393L37.1658 35.3445L37.1665 35.3442L38.2908 34.7972C38.979 34.4623 39.4158 33.7641 39.4158 32.9987V31.7476V21.264V20.6789L45.5757 18.039C47.0464 17.4087 48 15.9625 48 14.3624V12.1376C48 10.5375 47.0464 9.09132 45.5757 8.461L27.7546 0.82342C27.2567 0.610031 26.7207 0.5 26.179 0.5H21.821C21.2793 0.5 20.7433 0.610032 20.2454 0.823421L2.42432 8.461C0.953588 9.09132 0 10.5375 0 12.1376V14.3624C0 14.8468 0.0873679 15.317 0.25 15.7547V26.75C0.25 27.8546 1.14543 28.75 2.25 28.75C3.35457 28.75 4.25 27.8546 4.25 26.75V18.8214ZM12.9998 31.7777V22.5714L20.2454 25.6766C20.7433 25.89 21.2793 26 21.821 26H26.179C26.7207 26 27.2567 25.89 27.7546 25.6766L35.4158 22.3932V31.7476L25.3549 36.6424C24.5161 37.0505 23.5351 37.0452 22.7008 36.6281L12.9998 31.7777Z" fill="#FFBE5C"/>
</svg>
