<svg width="539" height="572" viewBox="0 0 539 572" fill="none" xmlns="http://www.w3.org/2000/svg">
<path d="M469.572 175.013C487.416 157.154 487.416 128.197 469.572 110.338C451.728 92.4781 422.798 92.4781 404.954 110.338C387.11 128.197 387.11 157.154 404.954 175.013C422.798 192.873 451.728 192.873 469.572 175.013Z" fill="url(#paint0_radial_49224_26024)"/>
<g style="mix-blend-mode:screen" opacity="0.55">
<path d="M469.572 175.013C487.416 157.154 487.416 128.197 469.572 110.338C451.728 92.4781 422.798 92.4781 404.954 110.338C387.11 128.197 387.11 157.154 404.954 175.013C422.798 192.873 451.728 192.873 469.572 175.013Z" fill="white"/>
</g>
<path d="M479.141 212.503C496.556 212.503 510.673 198.373 510.673 180.943C510.673 163.513 496.556 149.384 479.141 149.384C461.727 149.384 447.61 163.513 447.61 180.943C447.61 198.373 461.727 212.503 479.141 212.503Z" fill="url(#paint1_radial_49224_26024)"/>
<g style="mix-blend-mode:screen" opacity="0.55">
<path d="M479.141 212.503C496.556 212.503 510.673 198.373 510.673 180.943C510.673 163.513 496.556 149.384 479.141 149.384C461.727 149.384 447.61 163.513 447.61 180.943C447.61 198.373 461.727 212.503 479.141 212.503Z" fill="white"/>
</g>
<path d="M529.809 154.81C534.419 154.81 538.155 151.07 538.155 146.456C538.155 141.843 534.419 138.102 529.809 138.102C525.199 138.102 521.462 141.843 521.462 146.456C521.462 151.07 525.199 154.81 529.809 154.81Z" fill="url(#paint2_radial_49224_26024)"/>
<g style="mix-blend-mode:screen" opacity="0.55">
<path d="M529.809 154.81C534.419 154.81 538.155 151.07 538.155 146.456C538.155 141.843 534.419 138.102 529.809 138.102C525.199 138.102 521.462 141.843 521.462 146.456C521.462 151.07 525.199 154.81 529.809 154.81Z" fill="white"/>
</g>
<g filter="url(#filter0_b_49224_26024)">
<path d="M490.629 203.074C498.422 207.59 504.718 218.515 504.7 227.475L504.111 432.522C504.111 441.447 497.745 445.107 489.951 440.59L190.189 267.442C186.088 264.777 182.676 261.178 180.23 256.94C177.785 252.703 176.375 247.946 176.118 243.059L176.706 38.0121C176.706 29.0869 183.073 25.4276 190.867 29.9259L490.629 203.074Z" fill="url(#paint3_linear_49224_26024)" fill-opacity="0.3"/>
</g>
<path d="M522.929 203.193C530.722 207.691 537.018 218.615 537 227.576L536.412 432.641C536.412 441.566 530.045 445.136 522.251 440.709L222.489 267.454C214.696 262.938 208.4 252.031 208.418 243.07L209.006 38.0057C209.006 29.0806 215.373 25.4212 223.167 29.9374L522.929 203.193Z" stroke="#B391FF" stroke-width="0.847001" stroke-miterlimit="10"/>
<g filter="url(#filter1_f_49224_26024)">
<rect width="379.004" height="242.562" rx="15.125" transform="matrix(0.865833 0.500333 0 1 109.057 28)" fill="white"/>
</g>
<path d="M420.411 215.061C428.204 219.56 434.518 230.484 434.482 239.445L433.911 444.509C433.911 453.435 427.544 457.005 419.733 452.578L119.971 279.43C112.177 274.914 105.882 264.007 105.9 255.046L106.488 49.9816C106.488 41.0565 112.855 37.3971 120.649 41.9133L420.411 215.061Z" fill="#EFF4FF"/>
<path d="M426.029 211.795L126.267 38.6467C122.343 36.3797 118.777 36.1655 116.208 37.6649L110.608 40.9315C113.177 39.4321 116.726 39.6463 120.649 41.9133L420.411 215.061C428.205 219.56 434.518 230.484 434.482 239.445L433.912 444.51C433.912 448.954 432.325 452.096 429.792 453.56L435.392 450.293C437.924 448.829 439.494 445.688 439.512 441.243L440.1 236.196C439.842 231.307 438.433 226.547 435.988 222.307C433.543 218.066 430.13 214.464 426.029 211.795Z" fill="url(#paint4_linear_49224_26024)"/>
<path d="M420.411 215.062L348.484 173.47V411.397L419.822 452.578C427.634 457.076 433.965 453.47 434 444.51L434.482 239.516C434.518 230.484 428.293 219.56 420.411 215.062Z" fill="url(#paint5_linear_49224_26024)"/>
<path d="M391.234 239.82C404.823 247.674 415.81 266.72 415.81 282.357L415.506 390.03C415.506 405.667 404.395 411.968 390.806 404.114C377.216 396.26 366.23 377.214 366.283 361.577L366.586 253.904C366.586 238.285 377.644 231.966 391.234 239.82Z" fill="#FFBE5C"/>
<g filter="url(#filter2_d_49224_26024)">
<path d="M390.235 260.937C392.797 262.429 395.263 264.081 397.618 265.881C400.946 268.547 403.144 272.372 403.771 276.592C404.567 282.216 404.567 287.925 403.771 293.549C403.753 294.269 403.55 294.971 403.182 295.589C402.814 296.208 402.293 296.721 401.67 297.079C401.047 297.438 400.342 297.63 399.623 297.637C398.904 297.644 398.195 297.466 397.565 297.119C395.017 296.119 392.548 294.925 390.181 293.549C387.626 292.063 385.166 290.418 382.816 288.623C379.496 285.948 377.295 282.128 376.645 277.912C375.858 272.287 375.858 266.58 376.645 260.955C376.658 260.233 376.858 259.528 377.225 258.907C377.592 258.285 378.113 257.77 378.738 257.41C379.363 257.051 380.071 256.86 380.791 256.855C381.512 256.851 382.222 257.033 382.852 257.385C385.398 258.382 387.866 259.569 390.235 260.937Z" fill="black"/>
</g>
<path d="M390.235 260.937C392.797 262.429 395.263 264.081 397.618 265.881C400.946 268.547 403.144 272.372 403.771 276.592C404.567 282.216 404.567 287.925 403.771 293.549C403.753 294.269 403.55 294.971 403.182 295.589C402.814 296.208 402.293 296.721 401.67 297.079C401.047 297.438 400.342 297.63 399.623 297.637C398.904 297.644 398.195 297.466 397.565 297.119C395.017 296.119 392.548 294.925 390.181 293.549C387.626 292.063 385.166 290.418 382.816 288.623C379.496 285.948 377.295 282.128 376.645 277.912C375.858 272.287 375.858 266.58 376.645 260.955C376.658 260.233 376.858 259.528 377.225 258.907C377.592 258.285 378.113 257.77 378.738 257.41C379.363 257.051 380.071 256.86 380.791 256.855C381.512 256.851 382.222 257.033 382.852 257.385C385.398 258.382 387.866 259.569 390.235 260.937Z" fill="#EFF4FF"/>
<g filter="url(#filter3_d_49224_26024)">
<path d="M390.235 306.527C392.797 308.019 395.263 309.67 397.618 311.471C400.946 314.136 403.144 317.962 403.771 322.181C404.567 327.8 404.567 333.503 403.771 339.121C403.753 339.841 403.55 340.543 403.182 341.161C402.814 341.779 402.293 342.292 401.67 342.651C401.047 343.01 400.342 343.202 399.623 343.209C398.904 343.216 398.195 343.038 397.565 342.691C395.017 341.691 392.548 340.497 390.181 339.121C387.626 337.635 385.166 335.99 382.816 334.195C379.496 331.52 377.295 327.7 376.645 323.484C375.858 317.859 375.858 312.152 376.645 306.527C376.663 305.807 376.866 305.105 377.234 304.487C377.602 303.868 378.123 303.355 378.746 302.997C379.37 302.638 380.075 302.446 380.794 302.439C381.513 302.432 382.221 302.61 382.852 302.957C385.395 303.968 387.862 305.161 390.235 306.527Z" fill="black"/>
</g>
<path d="M390.235 306.527C392.797 308.019 395.263 309.67 397.618 311.471C400.946 314.136 403.144 317.962 403.771 322.181C404.567 327.8 404.567 333.503 403.771 339.121C403.753 339.841 403.55 340.543 403.182 341.161C402.814 341.779 402.293 342.292 401.67 342.651C401.047 343.01 400.342 343.202 399.623 343.209C398.904 343.216 398.195 343.038 397.565 342.691C395.017 341.691 392.548 340.497 390.181 339.121C387.626 337.635 385.166 335.99 382.816 334.195C379.496 331.52 377.295 327.7 376.645 323.484C375.858 317.859 375.858 312.152 376.645 306.527C376.663 305.807 376.866 305.105 377.234 304.487C377.602 303.868 378.123 303.355 378.746 302.997C379.37 302.638 380.075 302.446 380.794 302.439C381.513 302.432 382.221 302.61 382.852 302.957C385.395 303.968 387.862 305.161 390.235 306.527Z" fill="#EFF4FF"/>
<g filter="url(#filter4_d_49224_26024)">
<path d="M390.235 352.081C392.792 353.573 395.258 355.218 397.618 357.007C400.94 359.677 403.137 363.501 403.771 367.717C404.567 373.336 404.567 379.039 403.771 384.657C403.753 385.377 403.55 386.079 403.182 386.697C402.814 387.316 402.293 387.829 401.67 388.187C401.046 388.546 400.341 388.738 399.623 388.745C398.904 388.752 398.195 388.574 397.565 388.227C395.02 387.22 392.552 386.026 390.181 384.657C387.625 383.165 385.165 381.513 382.816 379.713C379.488 377.045 377.285 373.222 376.645 369.003C375.858 363.384 375.858 357.682 376.645 352.063C376.663 351.343 376.866 350.641 377.234 350.023C377.602 349.405 378.123 348.892 378.746 348.533C379.37 348.174 380.075 347.982 380.793 347.975C381.512 347.968 382.221 348.146 382.851 348.493C385.402 349.495 387.87 350.694 390.235 352.081Z" fill="black"/>
</g>
<path d="M390.235 352.081C392.792 353.573 395.258 355.218 397.618 357.007C400.94 359.677 403.137 363.501 403.771 367.717C404.567 373.336 404.567 379.039 403.771 384.657C403.753 385.377 403.55 386.079 403.182 386.697C402.814 387.316 402.293 387.829 401.67 388.187C401.046 388.546 400.341 388.738 399.623 388.745C398.904 388.752 398.195 388.574 397.565 388.227C395.02 387.22 392.552 386.026 390.181 384.657C387.625 383.165 385.165 381.513 382.816 379.713C379.488 377.045 377.285 373.222 376.645 369.003C375.858 363.384 375.858 357.682 376.645 352.063C376.663 351.343 376.866 350.641 377.234 350.023C377.602 349.405 378.123 348.892 378.746 348.533C379.37 348.174 380.075 347.982 380.793 347.975C381.512 347.968 382.221 348.146 382.851 348.493C385.402 349.495 387.87 350.694 390.235 352.081Z" fill="#EFF4FF"/>
<path d="M386.989 269.344C387.293 269.524 387.559 269.76 387.774 270.041L395.585 279.769C396.655 281.09 396.655 282.857 395.585 282.946L387.738 283.625C387.456 283.629 387.178 283.555 386.935 283.41C386.475 283.104 386.091 282.695 385.816 282.214C385.54 281.734 385.38 281.196 385.348 280.644V270.255C385.384 269.184 386.151 268.862 386.989 269.344Z" fill="#FF63AA"/>
<path d="M394.034 320.218C394.634 320.609 395.135 321.136 395.494 321.756C395.853 322.376 396.062 323.072 396.103 323.788V330.785C396.103 332.106 395.158 332.57 394.016 331.981L385.455 327.037C384.856 326.644 384.355 326.117 383.993 325.497C383.631 324.878 383.417 324.183 383.369 323.467V316.487C383.369 315.166 384.314 314.702 385.455 315.291L386.205 315.72L387.275 314.613C387.275 314.524 387.489 314.524 387.631 314.613L391.876 317.076C392.038 317.176 392.164 317.327 392.233 317.505L393.285 319.825L394.034 320.218ZM389.718 327.126C391.501 328.108 392.803 327.322 392.803 325.341C392.757 324.268 392.455 323.221 391.921 322.289C391.387 321.358 390.638 320.568 389.736 319.986C387.952 319.004 386.65 319.789 386.65 321.771C386.705 322.842 387.011 323.885 387.544 324.816C388.077 325.746 388.822 326.538 389.718 327.126Z" fill="#6098F0"/>
<path d="M388.06 362.88C389.039 363.455 389.981 364.093 390.877 364.79C391.955 365.662 392.673 366.902 392.893 368.271C393.206 370.414 393.206 372.59 392.893 374.733C392.88 374.966 392.81 375.192 392.687 375.39C392.565 375.588 392.395 375.753 392.193 375.868C391.99 375.984 391.762 376.047 391.529 376.051C391.296 376.055 391.066 376.001 390.86 375.893C389.885 375.518 388.943 375.064 388.042 374.536C387.064 373.974 386.128 373.342 385.242 372.644C384.168 371.769 383.451 370.531 383.226 369.163C382.904 367.016 382.904 364.832 383.226 362.684C383.234 362.451 383.301 362.224 383.421 362.025C383.541 361.825 383.711 361.66 383.913 361.546C384.116 361.431 384.344 361.37 384.577 361.369C384.81 361.369 385.039 361.428 385.242 361.541C386.216 361.911 387.158 362.358 388.06 362.88Z" fill="#6098F0"/>
<path d="M396.031 370.306C396.286 370.472 396.498 370.696 396.65 370.959C396.802 371.223 396.889 371.519 396.905 371.823V375.697C396.905 376.286 396.477 376.464 396.013 376.214C395.844 376.109 395.693 375.976 395.567 375.822L394.569 374.572C394.203 374.134 393.99 373.589 393.962 373.019V371.127C393.962 370.627 394.194 370.306 394.569 370.27H395.567C395.721 370.228 395.885 370.241 396.031 370.306Z" fill="#6098F0"/>
<path d="M421.053 240.409C421.359 240.603 421.617 240.865 421.805 241.174C421.994 241.484 422.109 241.833 422.141 242.194C422.141 242.89 421.641 243.176 421.053 242.819L412.938 238.142C412.635 237.946 412.381 237.684 412.195 237.374C412.01 237.065 411.898 236.717 411.868 236.357C411.868 235.679 412.35 235.393 412.938 235.732L421.053 240.409Z" fill="#EFF4FF"/>
<path d="M421.16 235.75C421.462 235.947 421.716 236.209 421.901 236.519C422.086 236.828 422.199 237.176 422.23 237.535C422.23 238.231 421.749 238.499 421.142 238.16L413.045 233.465C412.739 233.271 412.481 233.01 412.293 232.7C412.104 232.39 411.989 232.041 411.958 231.68C411.958 230.984 412.457 230.716 413.045 231.055L421.16 235.75Z" fill="#EFF4FF"/>
<path d="M421.16 231.073C421.47 231.283 421.727 231.561 421.913 231.886C422.098 232.211 422.207 232.574 422.23 232.947C422.23 233.644 421.748 233.911 421.142 233.572L412.956 228.806C412.654 228.61 412.401 228.347 412.215 228.037C412.03 227.728 411.917 227.381 411.886 227.021C411.886 226.325 412.385 226.039 412.974 226.396L421.16 231.073Z" fill="#EFF4FF"/>
<g filter="url(#filter5_d_49224_26024)">
<path d="M392.821 431.965C396.61 434.427 399.762 437.752 402.022 441.667C404.281 445.582 405.584 449.977 405.822 454.492L405.644 516.861C405.644 525.143 399.759 528.481 392.571 524.322L292.698 466.576C288.903 464.123 285.741 460.807 283.469 456.899C281.198 452.99 279.881 448.6 279.626 444.085L279.804 381.716C279.804 373.433 285.672 370.078 292.877 374.255L392.821 431.965Z" fill="black"/>
</g>
<path d="M392.821 431.965C396.61 434.427 399.762 437.752 402.022 441.667C404.281 445.582 405.584 449.977 405.822 454.492L405.644 516.861C405.644 525.143 399.759 528.481 392.571 524.322L292.698 466.576C288.903 464.123 285.741 460.807 283.469 456.899C281.198 452.99 279.881 448.6 279.626 444.085L279.804 381.716C279.804 373.433 285.672 370.078 292.877 374.255L392.821 431.965Z" fill="url(#paint6_linear_49224_26024)"/>
<path d="M338.961 437.48C339.56 437.871 340.058 438.398 340.415 439.019C340.771 439.639 340.976 440.336 341.012 441.05C341.012 442.353 340.084 442.835 338.961 442.228L298.102 418.595C297.505 418.202 297.008 417.674 296.652 417.054C296.296 416.434 296.09 415.739 296.051 415.025C296.051 413.722 296.996 413.24 298.12 413.846L338.961 437.48Z" fill="#EFF4FF"/>
<path d="M382.102 449.94C382.7 450.333 383.196 450.86 383.553 451.481C383.909 452.101 384.115 452.796 384.153 453.51C384.153 454.831 383.208 455.295 382.085 454.688L298.102 406.135C297.502 405.745 297.003 405.218 296.646 404.598C296.29 403.977 296.086 403.28 296.051 402.565C296.051 401.28 296.996 400.78 298.12 401.405L382.102 449.94Z" fill="#FFBE5C"/>
<path d="M379.945 488.247C381.668 489.361 383.102 490.87 384.128 492.649C385.155 494.427 385.744 496.424 385.848 498.475C385.848 502.224 383.173 503.741 379.909 501.849L349.465 484.266C347.749 483.144 346.321 481.633 345.295 479.857C344.27 478.08 343.676 476.087 343.562 474.038C343.562 470.271 346.237 468.683 349.501 470.646L379.945 488.247Z" fill="#FFBE5C"/>
<g filter="url(#filter6_d_49224_26024)">
<rect width="185.382" height="52.0677" rx="15.125" transform="matrix(0.865833 0.500333 0 1 223.197 63.8287)" fill="black"/>
</g>
<path d="M373.007 149.158L237.144 70.6168C233.773 68.6711 230.741 68.4926 228.548 69.7778L226.194 71.1344C228.387 69.8492 231.437 70.0277 234.79 71.9734L370.671 150.515C374.179 152.801 377.098 155.884 379.19 159.513C381.282 163.143 382.488 167.216 382.709 171.4V194.409C382.709 198.229 381.354 200.906 379.142 202.174L381.496 200.799C383.654 199.55 385.063 196.854 385.063 193.052V170.025C384.84 165.842 383.632 161.771 381.536 158.144C379.441 154.517 376.518 151.438 373.007 149.158Z" fill="url(#paint7_linear_49224_26024)"/>
<path d="M370.688 150.533C374.196 152.819 377.116 155.902 379.208 159.531C381.3 163.161 382.505 167.233 382.726 171.418V194.427C382.726 202.102 377.269 205.137 370.599 201.353L234.718 122.811C231.21 120.525 228.291 117.442 226.199 113.812C224.107 110.183 222.901 106.11 222.68 101.926V78.9172C222.68 71.2416 228.137 68.207 234.807 71.9913L370.688 150.533Z" fill="#EFF4FF"/>
<path d="M269.798 112.101L265.75 122.186L257.992 117.706L262.04 107.62L269.798 112.101Z" fill="#487DCF"/>
<path d="M302.828 131.183L298.78 141.268L291.022 136.788L295.07 126.702L302.828 131.183Z" fill="#487DCF"/>
<path d="M253.266 102.551L249.218 112.636L241.478 108.156L245.526 98.0706L253.266 102.551Z" fill="#487DCF"/>
<path d="M286.314 121.651L282.247 131.718L274.507 127.238L278.556 117.152L286.314 121.651Z" fill="#487DCF"/>
<path d="M305.111 132.504V144.91L240.283 107.424C239.045 106.616 238.016 105.528 237.278 104.247C236.541 102.966 236.116 101.528 236.038 100.052V97.4456C236.038 94.7502 237.964 93.6435 240.318 95.018L245.562 98.0347L241.513 108.12L249.253 112.601L253.302 102.515L262.076 107.585L258.028 117.67L265.786 122.15L269.834 112.065L278.591 117.117L274.543 127.202L282.283 131.683L286.349 121.615L295.106 126.667L290.968 136.788L298.726 141.268L302.775 131.183L305.111 132.504Z" fill="#6098F0"/>
<path d="M305.076 144.91V132.504L325.193 144.124C326.433 144.933 327.464 146.025 328.202 147.309C328.939 148.594 329.363 150.035 329.438 151.514V154.103C329.438 156.798 327.511 157.905 325.157 156.53L305.076 144.91Z" fill="#CAD8F2"/>
<path d="M356.224 149.711C358.991 151.328 361.653 153.117 364.196 155.067C367.796 157.954 370.182 162.088 370.884 166.651C371.725 172.745 371.725 178.926 370.884 185.019C370.863 185.805 370.638 186.571 370.231 187.243C369.825 187.915 369.251 188.47 368.566 188.853C367.881 189.237 367.108 189.435 366.323 189.43C365.538 189.424 364.769 189.215 364.089 188.822C361.332 187.735 358.661 186.44 356.099 184.948C353.333 183.331 350.67 181.543 348.127 179.593C344.522 176.71 342.134 172.574 341.439 168.008C340.58 161.916 340.58 155.733 341.439 149.64C341.466 148.864 341.691 148.108 342.092 147.444C342.493 146.779 343.058 146.228 343.731 145.844C344.405 145.459 345.166 145.253 345.942 145.246C346.717 145.239 347.482 145.43 348.163 145.802C350.941 146.909 353.635 148.215 356.224 149.711Z" fill="url(#paint8_linear_49224_26024)"/>
<path d="M361.646 169.311C362.634 170.019 363.453 170.936 364.045 171.998C364.637 173.059 364.987 174.239 365.07 175.451C365.07 177.879 363.394 178.843 361.307 177.629L351.748 172.113C350.411 171.251 349.304 170.075 348.524 168.688C347.744 167.301 347.314 165.744 347.271 164.152C347.378 161.671 349.055 160.582 351.249 161.582C352.194 160.082 354.049 159.797 356.189 160.993C357.619 161.931 358.842 163.154 359.78 164.585C360.719 166.016 361.354 167.624 361.646 169.311ZM359.292 171.096C359.506 170.971 359.292 170.453 359.042 170.275L357.669 169.472V166.455C357.659 166.335 357.624 166.219 357.565 166.115C357.507 166.01 357.427 165.919 357.33 165.848L355.047 164.545C354.851 164.438 354.691 164.545 354.691 164.741V167.74L353.3 166.955C352.996 166.776 352.836 167.115 353.05 167.49L355.921 172.453C355.98 172.562 356.066 172.654 356.171 172.72C356.205 172.743 356.246 172.755 356.287 172.755C356.328 172.755 356.368 172.743 356.403 172.72L359.292 171.078" fill="#EFF4FF"/>
<g filter="url(#filter7_d_49224_26024)">
<rect width="141.589" height="92.7602" rx="6.05" transform="matrix(0.865833 0.500333 0 1 203.579 144.91)" fill="black"/>
</g>
<path d="M321.554 210.956L210.856 146.98C210.247 146.543 209.534 146.275 208.789 146.203C208.043 146.131 207.292 146.257 206.611 146.57L204.168 147.998C204.847 147.678 205.599 147.547 206.346 147.619C207.093 147.692 207.807 147.964 208.412 148.408L319.093 212.384C320.826 213.505 322.27 215.022 323.305 216.809C324.341 218.596 324.938 220.603 325.05 222.666L324.854 303.117C324.918 303.855 324.787 304.596 324.474 305.266C324.161 305.937 323.677 306.513 323.07 306.937L325.531 305.509C326.142 305.089 326.629 304.514 326.943 303.842C327.256 303.17 327.385 302.427 327.315 301.689L327.547 221.202C327.429 219.141 326.824 217.138 325.782 215.357C324.74 213.576 323.292 212.068 321.554 210.956Z" fill="#1AE5FF"/>
<path d="M319.092 212.348C320.826 213.47 322.269 214.986 323.304 216.773C324.34 218.56 324.937 220.567 325.049 222.63L324.853 303.117C324.853 306.901 322.16 308.472 318.86 306.509L208.144 242.551C206.41 241.426 204.967 239.906 203.932 238.116C202.897 236.326 202.299 234.316 202.187 232.251L202.419 151.782C202.419 147.998 205.112 146.427 208.411 148.373L319.092 212.348Z" fill="url(#paint9_linear_49224_26024)"/>
<path d="M296.622 215.722C297.314 216.169 297.891 216.774 298.303 217.488C298.716 218.202 298.952 219.004 298.994 219.828C298.994 221.345 297.924 221.97 296.604 221.202C295.911 220.751 295.335 220.143 294.922 219.426C294.51 218.709 294.273 217.905 294.232 217.079C294.232 215.561 295.302 214.954 296.622 215.722Z" fill="#EFF4FF"/>
<path d="M311.514 220.22C312.379 220.78 313.099 221.539 313.614 222.433C314.129 223.327 314.424 224.331 314.474 225.361V240.427C314.474 242.319 313.119 243.087 311.496 242.212L293.661 231.877C292.798 231.313 292.081 230.554 291.566 229.661C291.052 228.768 290.755 227.765 290.701 226.736V211.67C290.701 209.778 292.038 209.028 293.697 209.885L311.514 220.22ZM312.084 233.697V223.987C312.071 223.781 312.012 223.58 311.91 223.401C311.808 223.221 311.666 223.068 311.496 222.951L293.661 212.634C293.34 212.438 293.073 212.634 293.073 212.973V225.897L296.372 224.022C296.61 223.915 296.871 223.872 297.131 223.897C297.391 223.922 297.639 224.014 297.852 224.165C298.464 224.557 298.967 225.098 299.315 225.736L300.759 228.217L305.182 224.647C305.417 224.481 305.697 224.392 305.985 224.392C306.272 224.392 306.553 224.481 306.787 224.647C307.464 225.092 308.012 225.708 308.375 226.432L312.138 233.662" fill="#EFF4FF"/>
<path d="M259.526 195.033L259.419 230.163L228.868 212.509L228.975 177.38L259.526 195.033Z" fill="#0063C4"/>
<path d="M249.2 201.674L254.943 198.336L254.836 233.483L249.111 236.803L249.2 201.674Z" fill="#EB9D1A"/>
<path d="M218.65 184.02L224.393 180.682L254.943 198.336L249.2 201.674L218.65 184.02Z" fill="#FBEFA0"/>
<path d="M249.2 201.674L249.111 236.803L218.56 219.149L218.65 184.02L249.2 201.674Z" fill="#FFBE5C"/>
<path d="M267.909 234.161C269.794 235.387 271.363 237.042 272.488 238.99C273.613 240.938 274.262 243.124 274.383 245.371C274.383 249.495 271.458 251.155 267.873 249.084C265.988 247.858 264.419 246.204 263.294 244.256C262.169 242.308 261.52 240.121 261.399 237.874C261.417 233.804 264.324 232.144 267.909 234.161Z" fill="#0063C4"/>
<path d="M264.377 237.125C263.717 236.644 262.94 236.349 262.128 236.27C261.316 236.192 260.497 236.333 259.757 236.678L256.654 238.463C257.395 238.123 258.213 237.985 259.024 238.064C259.835 238.142 260.611 238.434 261.273 238.91C263.179 240.142 264.764 241.812 265.896 243.78C267.028 245.748 267.675 247.958 267.783 250.227C267.866 251.026 267.734 251.832 267.402 252.563C267.07 253.294 266.549 253.923 265.893 254.386L269.014 252.601C269.666 252.131 270.183 251.497 270.515 250.765C270.847 250.032 270.981 249.225 270.904 248.424C270.792 246.157 270.141 243.949 269.006 241.984C267.87 240.019 266.284 238.353 264.377 237.125Z" fill="#FF9AC8"/>
<path d="M261.273 238.927C263.177 240.158 264.76 241.825 265.892 243.79C267.024 245.755 267.673 247.961 267.783 250.227C267.783 254.35 264.858 256.01 261.273 253.94C259.389 252.71 257.822 251.052 256.7 249.101C255.578 247.149 254.933 244.96 254.817 242.712C254.764 238.535 257.689 236.857 261.273 238.927Z" fill="#FF63AA"/>
<g filter="url(#filter8_f_49224_26024)">
<rect width="80.3324" height="22.3147" rx="6.05" transform="matrix(0.865833 0.500333 0 1 255.299 285.927)" fill="black"/>
</g>
<path d="M320.127 320.253L260.649 285.927C260.113 285.534 259.481 285.293 258.819 285.227C258.157 285.161 257.49 285.273 256.886 285.552L255.87 286.159C256.469 285.877 257.132 285.762 257.791 285.824C258.45 285.887 259.08 286.126 259.615 286.516L319.057 320.878C320.608 321.865 321.901 323.207 322.831 324.793C323.762 326.379 324.302 328.164 324.408 330V340.067C324.476 340.72 324.37 341.38 324.101 341.979C323.832 342.578 323.408 343.095 322.874 343.477L323.891 342.87C324.428 342.494 324.855 341.982 325.128 341.385C325.401 340.789 325.509 340.131 325.442 339.478V329.411C325.34 327.573 324.806 325.785 323.882 324.194C322.958 322.603 321.672 321.252 320.127 320.253Z" fill="url(#paint10_linear_49224_26024)"/>
<path d="M319.093 320.86C320.643 321.848 321.937 323.189 322.867 324.775C323.797 326.361 324.338 328.146 324.443 329.982V340.049C324.443 343.423 322.071 344.762 319.093 343.084L259.651 308.74C258.098 307.751 256.803 306.406 255.873 304.817C254.942 303.228 254.403 301.44 254.3 299.601V289.497C254.3 286.141 256.69 284.785 259.651 286.463L319.093 320.86Z" fill="#EFF4FF"/>
<path d="M275.72 302.564C276.465 302.986 277.081 303.603 277.503 304.349C277.928 305.121 278.16 305.985 278.181 306.866C278.2 307.234 278.131 307.601 277.978 307.936C277.826 308.272 277.596 308.566 277.307 308.794C276.652 309.257 275.93 309.618 275.167 309.865L274.168 310.275C274.115 310.299 274.057 310.312 273.999 310.312C273.94 310.312 273.883 310.299 273.829 310.275C273.697 310.19 273.587 310.073 273.508 309.936L272.527 308.401C271.654 307.044 270.905 305.866 270.387 304.831C269.901 303.96 269.62 302.989 269.567 301.993C269.521 301.661 269.561 301.322 269.682 301.01C269.804 300.697 270.004 300.421 270.263 300.208C270.538 300.047 270.855 299.973 271.173 299.995C271.492 300.017 271.796 300.135 272.046 300.333C272.594 300.662 273.058 301.114 273.401 301.654C273.61 301.966 273.795 302.294 273.954 302.635C274.104 302.473 274.295 302.356 274.507 302.296C274.931 302.223 275.366 302.319 275.72 302.564Z" fill="#FF63AA"/>
<path d="M290.023 310.204C290.473 310.507 290.849 310.908 291.121 311.379C291.393 311.849 291.554 312.375 291.592 312.917C291.592 313.917 290.879 314.309 290.005 313.809C289.517 313.506 289.122 313.074 288.864 312.56L286.01 312.792C286.026 312.976 286.026 313.161 286.01 313.345C286.031 313.511 286.031 313.679 286.01 313.845L288.846 317.415C289.018 317.304 289.22 317.244 289.425 317.244C289.631 317.244 289.832 317.304 290.005 317.415C290.456 317.718 290.831 318.12 291.103 318.59C291.375 319.06 291.536 319.586 291.574 320.128C291.574 321.128 290.861 321.539 289.987 321.039C289.534 320.734 289.157 320.329 288.885 319.856C288.613 319.382 288.453 318.853 288.418 318.308C288.399 318.177 288.399 318.045 288.418 317.915L285.528 314.345C285.352 314.419 285.159 314.446 284.968 314.424C284.778 314.402 284.596 314.332 284.441 314.22C283.99 313.917 283.614 313.515 283.342 313.045C283.07 312.575 282.909 312.049 282.871 311.507C282.871 310.507 283.584 310.097 284.458 310.596C284.907 310.885 285.28 311.277 285.546 311.739L288.435 311.525C288.418 311.37 288.418 311.215 288.435 311.06C288.453 310.097 289.185 309.704 290.023 310.204Z" fill="#A3BBE8"/>
<path d="M307.804 328.5C308.025 328.64 308.21 328.831 308.34 329.059C308.471 329.286 308.544 329.541 308.553 329.803V330.053C308.553 330.517 308.214 330.714 307.804 330.481L298.994 325.376C298.776 325.237 298.594 325.048 298.463 324.825C298.333 324.601 298.258 324.35 298.245 324.091V323.841C298.245 323.359 298.583 323.163 298.994 323.413L307.804 328.5Z" fill="#A3BBE8"/>
<path d="M303.97 318.361C304.125 318.464 304.254 318.601 304.347 318.762C304.44 318.923 304.494 319.104 304.505 319.289V322.128L305.682 322.806C305.967 322.967 306.11 323.449 305.914 323.574L303.649 324.984C303.614 325.006 303.574 325.018 303.533 325.018C303.492 325.018 303.452 325.006 303.417 324.984C303.322 324.918 303.243 324.833 303.185 324.734L300.938 320.717C300.742 320.36 300.938 320.057 301.17 320.218L302.365 320.896V318.058C302.365 317.719 302.614 317.576 302.9 317.754L303.97 318.361Z" fill="#A3BBE8"/>
<path d="M245.847 317.826L215.154 300.083C211.355 297.905 207.931 297.691 205.452 299.137L202.01 301.136C204.489 299.708 207.913 299.904 211.694 302.1L242.405 319.843C246.357 322.415 249.647 325.884 252.005 329.97C254.364 334.055 255.725 338.64 255.977 343.352L255.87 378.749C255.87 383.051 254.336 386.068 251.893 387.478L255.353 385.479C257.796 384.05 259.312 381.034 259.312 376.75L259.419 341.424C259.179 336.697 257.824 332.095 255.465 327.993C253.106 323.892 249.81 320.407 245.847 317.826Z" fill="#1AE5FF"/>
<path d="M242.405 319.843C246.357 322.415 249.647 325.885 252.005 329.97C254.364 334.055 255.725 338.64 255.977 343.352L255.87 378.749C255.87 387.389 249.735 390.887 242.209 386.532L211.516 368.789C207.558 366.222 204.265 362.754 201.906 358.667C199.547 354.581 198.189 349.993 197.944 345.28L198.033 309.954C198.033 301.314 204.168 297.816 211.694 302.171L242.405 319.843Z" fill="url(#paint11_linear_49224_26024)"/>
<path d="M240.781 350.849C241.161 351.098 241.477 351.433 241.703 351.827C241.929 352.221 242.059 352.662 242.083 353.116V357.329C242.083 358.15 241.495 358.489 240.764 358.078L239.087 357.114C238.781 358.487 238.171 359.774 237.304 360.881L238.498 362.934C238.998 363.826 238.998 364.719 238.498 365.076L235.859 366.575C235.71 366.643 235.546 366.671 235.383 366.656C235.22 366.64 235.065 366.581 234.932 366.486C234.542 366.246 234.222 365.907 234.004 365.504L232.827 363.451C231.421 363.617 229.997 363.471 228.654 363.023V364.969C228.654 365.79 228.065 366.129 227.352 365.718L223.625 363.558C223.24 363.314 222.919 362.98 222.689 362.586C222.46 362.191 222.328 361.747 222.305 361.291V359.364C220.773 358.052 219.381 356.587 218.149 354.99L216.954 355.669C216.805 355.732 216.641 355.757 216.479 355.741C216.318 355.726 216.162 355.67 216.027 355.579C215.641 355.334 215.322 354.997 215.1 354.598L212.496 350.189C211.979 349.296 211.979 348.403 212.496 348.046L213.691 347.368C212.9 345.513 212.303 343.58 211.907 341.603L210.231 340.639C209.854 340.387 209.541 340.051 209.315 339.658C209.089 339.264 208.957 338.824 208.929 338.372V334.088C208.929 333.249 209.518 332.909 210.231 333.338L211.907 334.302C212.21 332.922 212.82 331.629 213.691 330.517L212.496 328.465C211.996 327.572 211.996 326.68 212.496 326.341L215.135 324.823C215.286 324.759 215.451 324.735 215.613 324.754C215.776 324.773 215.931 324.834 216.063 324.93C216.448 325.168 216.767 325.5 216.99 325.894L218.167 327.947C219.573 327.781 220.998 327.927 222.34 328.375V326.448C222.34 325.609 222.929 325.269 223.66 325.698L227.388 327.84C227.765 328.091 228.08 328.426 228.306 328.82C228.531 329.213 228.663 329.654 228.69 330.107V332.035C230.225 333.348 231.618 334.82 232.845 336.426L234.04 335.748C234.188 335.675 234.352 335.646 234.516 335.661C234.68 335.677 234.836 335.738 234.967 335.837C235.348 336.083 235.66 336.42 235.877 336.819L238.516 341.37C239.034 342.245 239.016 343.155 238.516 343.495L237.321 344.173C238.112 346.029 238.709 347.961 239.105 349.939L240.781 350.849ZM225.533 353.348C229.207 355.472 232.185 353.759 232.203 349.546C232.079 347.242 231.414 345.001 230.261 343.003C229.108 341.006 227.5 339.309 225.568 338.05C221.895 335.926 218.916 337.64 218.898 341.852C219.018 344.157 219.682 346.4 220.835 348.399C221.988 350.397 223.598 352.093 225.533 353.348Z" fill="#EFF4FF"/>
<g filter="url(#filter9_d_49224_26024)">
<path d="M139.651 139.353C148.105 144.244 154.935 156.079 154.9 165.789L154.293 378.208C154.293 387.937 147.409 391.846 138.956 386.973L53.7246 337.724C45.2711 332.833 38.4584 321.016 38.494 311.287L39.0825 98.8685C39.0825 89.1401 45.9845 85.213 54.4381 90.104L139.651 139.353Z" fill="black"/>
</g>
<path d="M139.651 139.353C148.105 144.244 154.935 156.079 154.9 165.789L154.293 378.208C154.293 387.937 147.409 391.846 138.956 386.973L53.7246 337.724C45.2711 332.833 38.4584 321.016 38.494 311.287L39.0825 98.8685C39.0825 89.1401 45.9845 85.213 54.4381 90.104L139.651 139.353Z" fill="url(#paint12_linear_49224_26024)"/>
<path d="M121.798 318.106L61.3396 283.173C58.0759 281.281 55.1153 281.102 52.993 282.352L49.2834 284.512C51.4236 283.28 54.3841 283.459 57.6478 285.333L118.107 320.266C121.52 322.489 124.36 325.488 126.396 329.018C128.432 332.548 129.607 336.51 129.824 340.58C129.824 344.293 128.504 346.899 126.4 348.13L130.109 345.953C132.232 344.739 133.534 342.133 133.551 338.42C133.33 334.346 132.15 330.383 130.108 326.853C128.066 323.323 125.218 320.326 121.798 318.106Z" fill="#1AE5FF"/>
<path d="M118.089 320.266C121.502 322.49 124.342 325.488 126.379 329.018C128.415 332.548 129.589 336.51 129.806 340.58C129.806 348.041 124.456 351.058 118 347.309L57.5588 312.305C54.1456 310.082 51.3053 307.083 49.2692 303.553C47.233 300.023 46.0586 296.061 45.8416 291.991C45.8416 284.53 51.1919 281.513 57.6301 285.262L118.089 320.266Z" fill="url(#paint13_linear_49224_26024)"/>
<path d="M67.807 307.565C67.4417 307.354 67.1161 307.093 66.8302 306.783C66.5461 306.474 66.3201 306.142 66.1522 305.787C65.9862 305.431 65.8958 305.078 65.881 304.726L66.5783 305.129C66.5931 305.349 66.6558 305.567 66.7665 305.784C66.8772 306 67.022 306.2 67.201 306.387C67.3799 306.573 67.5782 306.73 67.7959 306.855C68.0394 306.996 68.2553 307.072 68.4434 307.083C68.6316 307.093 68.7792 307.042 68.8862 306.929C68.9932 306.816 69.0467 306.645 69.0467 306.415C69.0467 306.174 68.995 305.932 68.8917 305.689C68.7884 305.444 68.6372 305.212 68.4379 304.992C68.2387 304.773 67.9952 304.58 67.7074 304.414L67.2535 304.151V303.448L67.7074 303.711C67.9324 303.841 68.1298 303.908 68.2996 303.912C68.4711 303.917 68.6049 303.863 68.7008 303.748C68.7986 303.634 68.8475 303.462 68.8475 303.232C68.8475 303.01 68.805 302.793 68.7202 302.58C68.6353 302.366 68.5154 302.169 68.3604 301.988C68.2073 301.808 68.0265 301.658 67.8181 301.537C67.6225 301.424 67.438 301.359 67.2646 301.342C67.093 301.324 66.9528 301.361 66.844 301.454C66.7352 301.544 66.6761 301.696 66.6669 301.908L66.0028 301.524C66.0138 301.187 66.1033 300.938 66.2712 300.778C66.4391 300.615 66.6586 300.539 66.9298 300.551C67.2028 300.564 67.5026 300.665 67.8291 300.853C68.1796 301.056 68.4803 301.312 68.7312 301.621C68.9821 301.928 69.1749 302.253 69.3096 302.597C69.4443 302.941 69.5116 303.268 69.5116 303.577C69.5116 303.946 69.4277 304.211 69.2598 304.374C69.0937 304.538 68.8678 304.588 68.5818 304.523V304.574C68.9397 304.849 69.2192 305.186 69.4203 305.586C69.6214 305.983 69.7219 306.39 69.7219 306.805C69.7219 307.161 69.638 307.432 69.4701 307.618C69.3041 307.804 69.0771 307.894 68.7894 307.89C68.5016 307.885 68.1741 307.777 67.807 307.565ZM72.1156 310.08C71.8462 309.925 71.6018 309.725 71.3822 309.481C71.1627 309.235 70.9884 308.962 70.8592 308.664C70.7301 308.363 70.6655 308.053 70.6655 307.734C70.6655 307.453 70.7135 307.252 70.8094 307.133C70.9054 307.012 71.0336 306.947 71.1941 306.94C71.3546 306.932 71.5317 306.96 71.7254 307.023C71.9209 307.085 72.1174 307.158 72.3148 307.242C72.5731 307.353 72.7825 307.445 72.943 307.519C73.1053 307.592 73.2234 307.625 73.2972 307.618C73.3728 307.613 73.4106 307.55 73.4106 307.428V307.403C73.4106 307.087 73.3359 306.799 73.1865 306.538C73.0389 306.278 72.8147 306.061 72.514 305.887C72.2023 305.707 71.9578 305.645 71.7807 305.7C71.6036 305.755 71.4791 305.852 71.4071 305.989L70.7873 305.375C70.898 305.141 71.0456 304.994 71.23 304.934C71.4164 304.874 71.6193 304.874 71.8388 304.935C72.0602 304.994 72.2779 305.086 72.4919 305.21C72.6284 305.289 72.7852 305.398 72.9623 305.539C73.1413 305.679 73.3138 305.854 73.4798 306.065C73.6477 306.277 73.787 306.531 73.8976 306.827C74.0083 307.124 74.0637 307.467 74.0637 307.857V311.091L73.4106 310.714V310.049L73.3774 310.03C73.3331 310.111 73.2593 310.182 73.156 310.244C73.0527 310.305 72.9153 310.329 72.7437 310.315C72.5721 310.302 72.3628 310.223 72.1156 310.08ZM72.2152 309.46C72.4734 309.61 72.6911 309.677 72.8682 309.662C73.0472 309.648 73.1819 309.575 73.2723 309.442C73.3645 309.309 73.4106 309.141 73.4106 308.937V308.246C73.3829 308.269 73.3221 308.269 73.228 308.246C73.1357 308.223 73.0287 308.188 72.907 308.141C72.7871 308.093 72.6699 308.044 72.5555 307.995C72.443 307.945 72.3517 307.905 72.2816 307.875C72.1119 307.803 71.9532 307.752 71.8056 307.725C71.6599 307.696 71.5418 307.712 71.4514 307.773C71.3629 307.832 71.3186 307.958 71.3186 308.15C71.3186 308.412 71.4025 308.658 71.5704 308.89C71.7401 309.12 71.9551 309.31 72.2152 309.46ZM77.879 308.387V309.09L75.9087 307.951V312.157L75.2557 311.78V306.871L77.879 308.387ZM78.8323 315.688V308.938L79.4632 309.302V310.082L79.5407 310.127C79.5887 310.069 79.6551 309.999 79.7399 309.916C79.8266 309.832 79.9503 309.784 80.1107 309.772C80.2731 309.759 80.4926 309.833 80.7693 309.993C81.1272 310.2 81.4427 310.485 81.7157 310.85C81.9888 311.214 82.2018 311.63 82.355 312.098C82.5081 312.566 82.5846 313.058 82.5846 313.573C82.5846 314.093 82.5081 314.499 82.355 314.792C82.2018 315.083 81.9897 315.255 81.7185 315.307C81.4473 315.357 81.1346 315.279 80.7804 315.075C80.5074 314.917 80.2888 314.738 80.1246 314.539C79.9604 314.338 79.834 314.144 79.7455 313.959C79.6569 313.771 79.5887 313.619 79.5407 313.502L79.4854 313.47V316.065L78.8323 315.688ZM79.4743 311.763C79.4743 312.134 79.5213 312.488 79.6154 312.826C79.7095 313.161 79.8469 313.461 80.0277 313.726C80.2085 313.988 80.4299 314.195 80.6919 314.346C80.9649 314.504 81.1927 314.552 81.3754 314.492C81.5599 314.43 81.6982 314.284 81.7905 314.054C81.8845 313.823 81.9316 313.532 81.9316 313.183C81.9316 312.838 81.8855 312.5 81.7932 312.17C81.7028 311.838 81.5654 311.539 81.3809 311.27C81.1983 311 80.9686 310.786 80.6919 310.626C80.4262 310.472 80.203 310.421 80.0222 310.472C79.8414 310.521 79.7049 310.657 79.6126 310.881C79.5204 311.103 79.4743 311.397 79.4743 311.763ZM83.8493 318.587C83.7386 318.523 83.6399 318.455 83.5532 318.384C83.4665 318.314 83.4065 318.26 83.3733 318.222L83.5393 317.653C83.698 317.792 83.8382 317.89 83.96 317.947C84.0817 318.005 84.1896 318.005 84.2837 317.946C84.3796 317.891 84.4673 317.761 84.5466 317.558L84.6684 317.245L83.0966 311.402L83.805 311.811L84.9783 316.401L85.0226 316.427L86.1959 313.193L86.9043 313.602L85.1 318.184C85.0189 318.391 84.9183 318.543 84.7984 318.64C84.6785 318.739 84.5392 318.783 84.3806 318.772C84.2238 318.763 84.0467 318.701 83.8493 318.587ZM87.5006 317.603L88.198 318.006C88.2127 318.236 88.2994 318.454 88.4581 318.661C88.6186 318.869 88.827 319.047 89.0835 319.195C89.3454 319.346 89.5696 319.414 89.7559 319.398C89.9422 319.38 90.0354 319.232 90.0354 318.953C90.0354 318.788 90.0003 318.625 89.9302 318.464C89.8601 318.299 89.7614 318.147 89.6341 318.005C89.5069 317.863 89.3565 317.742 89.1831 317.642L88.4525 317.22V316.542L89.1831 316.964C89.4432 317.115 89.6351 317.157 89.7587 317.092C89.8841 317.028 89.9468 316.894 89.9468 316.69C89.9468 316.47 89.8795 316.256 89.7448 316.046C89.6102 315.834 89.4192 315.656 89.172 315.513C88.923 315.369 88.7154 315.314 88.5494 315.348C88.3834 315.38 88.2957 315.495 88.2865 315.692L87.6002 315.295C87.6076 315.035 87.6777 314.843 87.8105 314.717C87.9434 314.589 88.1242 314.534 88.3529 314.551C88.5817 314.566 88.8436 314.659 89.1388 314.829C89.4377 315.002 89.6969 315.213 89.9164 315.461C90.1378 315.708 90.3084 315.97 90.4283 316.246C90.5501 316.521 90.611 316.788 90.611 317.048C90.611 317.325 90.5436 317.51 90.409 317.602C90.2743 317.695 90.1055 317.719 89.9026 317.674V317.725C90.0631 317.831 90.2023 317.971 90.3204 318.146C90.4403 318.319 90.5335 318.511 90.5999 318.719C90.6663 318.926 90.6995 319.132 90.6995 319.336C90.6995 319.635 90.6303 319.855 90.492 319.996C90.3536 320.136 90.1636 320.196 89.9219 320.178C89.6803 320.158 89.4045 320.058 89.0945 319.879C88.7938 319.705 88.5245 319.493 88.2865 319.243C88.0485 318.99 87.8594 318.722 87.7192 318.439C87.5809 318.154 87.508 317.876 87.5006 317.603ZM92.2699 320.499L94.3177 317.886L95.0704 318.321V323.23L94.4173 322.853V319.056L92.3806 321.676L91.6169 321.234V316.325L92.2699 316.703V320.499ZM95.6881 319.381V318.678L99.1416 320.674V321.377L97.7469 320.571V324.777L97.0939 324.399V320.193L95.6881 319.381ZM100.659 323.327L101.876 324.031C102.374 324.319 102.755 324.685 103.019 325.129C103.283 325.573 103.415 326.019 103.415 326.467C103.415 326.761 103.356 326.994 103.238 327.167C103.12 327.337 102.946 327.428 102.718 327.438C102.489 327.447 102.208 327.355 101.876 327.163L100.094 326.133V321.224L100.747 321.601V325.807L101.876 326.46C102.135 326.609 102.347 326.653 102.513 326.591C102.679 326.529 102.762 326.375 102.762 326.128C102.762 325.868 102.679 325.608 102.513 325.348C102.347 325.088 102.135 324.883 101.876 324.734L100.659 324.03V323.327Z" fill="white"/>
<path d="M126.079 163.808C129.539 166.055 132.419 169.089 134.483 172.663C136.548 176.237 137.738 180.249 137.957 184.371C137.957 191.94 132.607 194.992 126.008 191.19L61.0013 153.705C57.5432 151.453 54.6661 148.415 52.605 144.838C50.5438 141.261 49.357 137.247 49.1414 133.123C49.1414 125.572 54.4917 122.52 61.0904 126.304L126.079 163.808Z" fill="#FFBE5C"/>
<path d="M62.9095 132.588C64.1502 133.325 65.3417 134.142 66.4764 135.033C68.1463 136.357 69.2393 138.276 69.5261 140.388C69.9196 143.165 69.9196 145.983 69.5261 148.76C69.5163 149.116 69.4158 149.463 69.2343 149.769C69.0528 150.075 68.7963 150.329 68.4891 150.508C68.1818 150.687 67.834 150.784 67.4786 150.79C67.1233 150.797 66.7722 150.713 66.4586 150.545C65.2262 150.041 64.0338 149.445 62.8917 148.76C61.6222 148.03 60.401 147.219 59.2356 146.333C57.5824 144.995 56.4936 143.083 56.1859 140.977C55.801 138.194 55.801 135.371 56.1859 132.588C56.1908 132.23 56.2881 131.88 56.4684 131.571C56.6487 131.262 56.9058 131.006 57.2147 130.826C57.5236 130.646 57.8737 130.55 58.231 130.545C58.5883 130.541 58.9405 130.63 59.2534 130.803C60.5133 131.309 61.7351 131.906 62.9095 132.588Z" fill="white"/>
<path d="M62.9098 136.693L63.0168 136.8L65.799 139.942C65.884 140.042 65.934 140.168 65.9417 140.299V145.654C65.9428 145.686 65.9353 145.718 65.9201 145.746C65.9049 145.774 65.8825 145.797 65.8552 145.813C65.8279 145.83 65.7967 145.838 65.7649 145.839C65.7331 145.839 65.7017 145.831 65.6742 145.815L64.4079 145.065C64.3312 145.017 64.2669 144.952 64.2204 144.874C64.1739 144.797 64.1465 144.709 64.1404 144.619V141.923C64.1423 141.831 64.1203 141.74 64.0766 141.658C64.0328 141.577 63.9688 141.509 63.8907 141.459L61.9289 140.335C61.7862 140.245 61.6614 140.335 61.6614 140.478V143.173C61.6614 143.351 61.5366 143.423 61.3939 143.334L60.1276 142.602C60.0485 142.552 59.9828 142.484 59.9361 142.403C59.8895 142.322 59.8634 142.231 59.8601 142.138V136.782C59.8601 136.675 59.8601 136.604 60.0028 136.604H62.785L62.9098 136.693Z" fill="#FFC21A"/>
<path d="M78.3588 145.769V146.472L75.6247 144.893V150.735L74.9385 150.338V143.793L78.3588 145.769ZM78.9558 152.66V151.957L79.1107 152.046C79.238 152.12 79.3441 152.152 79.429 152.144C79.5138 152.133 79.5821 152.069 79.6338 151.952C79.6873 151.834 79.7278 151.651 79.7555 151.402C79.785 151.153 79.8062 150.827 79.8192 150.423L79.8966 148.294L82.7303 149.932V154.841L82.0772 154.464V150.258L80.5165 149.356L80.4501 151.069C80.4353 151.463 80.404 151.8 80.356 152.079C80.3099 152.357 80.2389 152.571 80.1429 152.723C80.0488 152.875 79.9234 152.958 79.7666 152.972C79.6098 152.986 79.4133 152.924 79.1772 152.788L78.9558 152.66ZM85.1793 156.371C84.9099 156.216 84.6655 156.016 84.446 155.772C84.2264 155.525 84.0521 155.253 83.9229 154.955C83.7938 154.654 83.7292 154.344 83.7292 154.025C83.7292 153.743 83.7772 153.543 83.8731 153.424C83.9691 153.303 84.0973 153.238 84.2578 153.231C84.4183 153.223 84.5954 153.251 84.7891 153.314C84.9846 153.376 85.1811 153.449 85.3785 153.533C85.6368 153.644 85.8462 153.736 86.0067 153.81C86.169 153.882 86.2871 153.915 86.3609 153.909C86.4365 153.904 86.4743 153.84 86.4743 153.719V153.693C86.4743 153.378 86.3996 153.09 86.2502 152.829C86.1026 152.569 85.8784 152.352 85.5777 152.178C85.266 151.998 85.0215 151.936 84.8444 151.991C84.6673 152.046 84.5428 152.143 84.4709 152.28L83.851 151.666C83.9617 151.432 84.1093 151.285 84.2938 151.225C84.4801 151.165 84.683 151.165 84.9025 151.225C85.1239 151.285 85.3416 151.377 85.5556 151.501C85.6921 151.579 85.8489 151.689 86.026 151.83C86.205 151.97 86.3775 152.145 86.5435 152.356C86.7114 152.568 86.8507 152.822 86.9614 153.118C87.072 153.415 87.1274 153.758 87.1274 154.147V157.382L86.4743 157.004V156.34L86.4411 156.321C86.3968 156.401 86.323 156.473 86.2197 156.535C86.1164 156.596 85.979 156.62 85.8074 156.606C85.6359 156.592 85.4265 156.514 85.1793 156.371ZM85.2789 155.751C85.5372 155.9 85.7548 155.968 85.9319 155.953C86.1109 155.939 86.2456 155.866 86.336 155.732C86.4282 155.6 86.4743 155.432 86.4743 155.228V154.537C86.4467 154.56 86.3858 154.56 86.2917 154.537C86.1994 154.514 86.0924 154.478 85.9707 154.432C85.8508 154.384 85.7336 154.335 85.6193 154.286C85.5067 154.236 85.4154 154.196 85.3453 154.166C85.1756 154.093 85.0169 154.043 84.8693 154.016C84.7236 153.987 84.6055 154.003 84.5151 154.063C84.4266 154.123 84.3823 154.249 84.3823 154.44C84.3823 154.703 84.4662 154.949 84.6341 155.18C84.8038 155.411 85.0188 155.601 85.2789 155.751ZM88.3194 158.071V153.162L90.0572 154.166C90.5147 154.43 90.8781 154.76 91.1475 155.154C91.4168 155.548 91.5515 155.941 91.5515 156.333C91.5515 156.632 91.4749 156.819 91.3218 156.894C91.1687 156.968 90.9722 156.964 90.7324 156.883C90.8892 156.999 91.0414 157.151 91.189 157.338C91.3384 157.527 91.462 157.739 91.5598 157.974C91.6576 158.208 91.7064 158.453 91.7064 158.711C91.7064 158.963 91.6511 159.155 91.5404 159.29C91.4297 159.424 91.2711 159.489 91.0645 159.484C90.8578 159.48 90.6106 159.395 90.3228 159.228L88.3194 158.071ZM88.9392 157.739L90.3228 158.538C90.5479 158.668 90.7241 158.708 90.8514 158.658C90.9787 158.608 91.0423 158.477 91.0423 158.263C91.0423 158.01 90.9787 157.774 90.8514 157.555C90.7241 157.335 90.5479 157.16 90.3228 157.03L88.9392 156.23V157.739ZM88.9392 155.578L90.0572 156.224C90.2324 156.325 90.3828 156.385 90.5082 156.402C90.6337 156.417 90.7296 156.391 90.796 156.325C90.8643 156.258 90.8984 156.152 90.8984 156.007C90.8984 155.8 90.8237 155.595 90.6743 155.392C90.5248 155.186 90.3191 155.008 90.0572 154.856L88.9392 154.21V155.578ZM95.5397 159.443V160.146L93.1931 158.79V158.087L95.5397 159.443ZM93.3481 156.068V160.977L92.695 160.599V155.69L93.3481 156.068ZM96.0378 157.622V162.531L95.3848 162.154V157.244L96.0378 157.622ZM98.4813 164.058C98.212 163.902 97.9675 163.702 97.748 163.458C97.5285 163.212 97.3541 162.94 97.225 162.642C97.0958 162.341 97.0313 162.031 97.0313 161.712C97.0313 161.43 97.0792 161.23 97.1752 161.111C97.2711 160.989 97.3993 160.925 97.5598 160.917C97.7203 160.91 97.8974 160.938 98.0911 161.001C98.2867 161.063 98.4831 161.136 98.6805 161.22C98.9388 161.331 99.1482 161.423 99.3087 161.497C99.471 161.569 99.5891 161.602 99.6629 161.596C99.7385 161.591 99.7764 161.527 99.7764 161.406V161.38C99.7764 161.065 99.7016 160.777 99.5522 160.516C99.4046 160.256 99.1805 160.039 98.8798 159.865C98.568 159.685 98.3236 159.622 98.1465 159.678C97.9694 159.733 97.8448 159.829 97.7729 159.967L97.153 159.353C97.2637 159.119 97.4113 158.972 97.5958 158.912C97.7821 158.851 97.985 158.851 98.2046 158.912C98.426 158.972 98.6436 159.064 98.8576 159.187C98.9942 159.266 99.151 159.376 99.3281 159.517C99.507 159.656 99.6795 159.832 99.8455 160.043C100.013 160.255 100.153 160.509 100.263 160.805C100.374 161.101 100.429 161.444 100.429 161.834V165.069L99.7764 164.691V164.026L99.7432 164.007C99.6989 164.088 99.6251 164.16 99.5218 164.221C99.4185 164.283 99.281 164.307 99.1095 164.293C98.9379 164.279 98.7285 164.201 98.4813 164.058ZM98.5809 163.438C98.8392 163.587 99.0569 163.654 99.234 163.64C99.4129 163.626 99.5476 163.552 99.638 163.419C99.7302 163.287 99.7764 163.119 99.7764 162.914V162.224C99.7487 162.246 99.6878 162.246 99.5937 162.224C99.5015 162.2 99.3945 162.165 99.2727 162.118C99.1528 162.07 99.0357 162.022 98.9213 161.973C98.8088 161.923 98.7174 161.883 98.6473 161.853C98.4776 161.78 98.319 161.73 98.1714 161.702C98.0256 161.674 97.9076 161.689 97.8172 161.75C97.7286 161.81 97.6843 161.935 97.6843 162.127C97.6843 162.389 97.7683 162.636 97.9362 162.867C98.1059 163.097 98.3208 163.288 98.5809 163.438ZM104.178 167.235V163.016L103.049 162.364C102.795 162.217 102.595 162.169 102.449 162.221C102.303 162.274 102.23 162.419 102.23 162.658C102.23 162.892 102.296 163.114 102.427 163.324C102.559 163.535 102.741 163.707 102.972 163.84L104.344 164.633V165.337L102.972 164.543C102.684 164.377 102.436 164.175 102.227 163.938C102.019 163.7 101.858 163.44 101.746 163.158C101.633 162.873 101.577 162.581 101.577 162.28C101.577 161.978 101.636 161.752 101.754 161.603C101.872 161.454 102.041 161.384 102.261 161.394C102.482 161.404 102.745 161.498 103.049 161.673L104.798 162.684V167.593L104.178 167.235ZM101.345 165.598L102.551 163.853L103.26 164.262L102.053 166.007L101.345 165.598Z" fill="white"/>
<path d="M126.079 215.592C129.539 217.844 132.418 220.882 134.482 224.458C136.546 228.035 137.737 232.049 137.957 236.173C137.957 243.742 132.607 246.794 126.008 242.992L61.0013 205.506C57.5452 203.252 54.6696 200.214 52.6087 196.637C50.5478 193.061 49.3598 189.048 49.1414 184.925C49.1414 177.374 54.4917 174.304 61.0904 178.106L126.079 215.592Z" fill="#EFF4FF"/>
<path d="M62.9095 185.086C64.1463 185.829 65.3374 186.645 66.4764 187.531C68.1421 188.858 69.234 190.776 69.5261 192.886C69.9196 195.669 69.9196 198.493 69.5261 201.276C69.5212 201.633 69.4239 201.984 69.2436 202.292C69.0633 202.601 68.8062 202.858 68.4973 203.038C68.1884 203.217 67.8383 203.314 67.481 203.318C67.1237 203.322 66.7715 203.234 66.4586 203.061C65.2262 202.557 64.0338 201.96 62.8917 201.276C61.6183 200.552 60.3966 199.741 59.2356 198.848C57.5824 197.51 56.4936 195.598 56.1859 193.493C55.801 190.71 55.801 187.887 56.1859 185.103C56.1908 184.746 56.2881 184.396 56.4684 184.087C56.6487 183.778 56.9058 183.521 57.2147 183.342C57.5236 183.162 57.8737 183.065 58.231 183.061C58.5883 183.057 58.9405 183.146 59.2534 183.318C60.5128 183.819 61.7346 184.41 62.9095 185.086Z" fill="#6098F0"/>
<path d="M65.9948 194.493C66.0723 194.548 66.1366 194.62 66.1829 194.703C66.2291 194.787 66.2563 194.879 66.2623 194.975V195.885C66.2623 196.063 66.1375 196.135 65.9948 196.046L65.6382 195.831C65.5828 196.126 65.4539 196.403 65.2636 196.635L65.5133 197.063C65.6203 197.259 65.6203 197.456 65.5133 197.527L64.9604 197.831C64.9323 197.852 64.8978 197.864 64.8623 197.864C64.8268 197.864 64.7923 197.852 64.7642 197.831C64.6822 197.784 64.6144 197.716 64.5681 197.634L64.3184 197.188C64.025 197.256 63.72 197.256 63.4266 197.188V197.599C63.4266 197.777 63.3018 197.848 63.1591 197.759L62.3744 197.313C62.2917 197.262 62.2226 197.191 62.1729 197.107C62.1232 197.023 62.0944 196.928 62.0891 196.831V196.278C61.7711 195.995 61.4787 195.684 61.2152 195.349L60.9655 195.492C60.9357 195.509 60.9018 195.519 60.8674 195.519C60.833 195.519 60.7992 195.509 60.7693 195.492C60.6827 195.444 60.6139 195.369 60.5731 195.278L60.0203 194.314C59.9133 194.136 59.9133 193.939 60.0203 193.868L60.27 193.725C60.1103 193.334 59.9908 192.927 59.9133 192.511L59.5566 192.297C59.4738 192.246 59.4047 192.175 59.355 192.091C59.3053 192.007 59.2766 191.912 59.2712 191.815V190.923C59.2712 190.744 59.3961 190.673 59.5566 190.762L59.9133 190.958C59.9733 190.668 60.095 190.394 60.27 190.155L60.0203 189.727C59.9133 189.548 59.9133 189.334 60.0203 189.28L60.591 188.959C60.6208 188.942 60.6546 188.933 60.6891 188.933C60.7235 188.933 60.7574 188.942 60.7872 188.959C60.8738 189.008 60.9425 189.083 60.9833 189.173L61.233 189.602C61.5273 189.562 61.8267 189.593 62.1069 189.691V189.28C62.1069 189.102 62.2318 189.03 62.3923 189.12L63.177 189.584C63.2597 189.635 63.3289 189.706 63.3785 189.79C63.4282 189.874 63.457 189.968 63.4624 190.066V190.458C63.7906 190.736 64.0894 191.048 64.3541 191.387L64.6037 191.244C64.6347 191.231 64.6681 191.224 64.7018 191.224C64.7355 191.224 64.7689 191.231 64.7999 191.244C64.8784 191.302 64.9449 191.375 64.9961 191.458L65.549 192.422C65.656 192.6 65.656 192.815 65.549 192.868L65.2993 193.011C65.459 193.409 65.5785 193.821 65.656 194.243L65.9948 194.493ZM62.7668 195.028C63.5515 195.474 64.1757 195.117 64.1757 194.225C64.1498 193.74 64.0104 193.267 63.7688 192.845C63.5272 192.424 63.1901 192.065 62.7846 191.797C61.9999 191.333 61.3757 191.708 61.3578 192.601C61.3871 193.087 61.5298 193.56 61.7745 193.982C62.0191 194.403 62.359 194.762 62.7668 195.028Z" fill="#EFF4FF"/>
<path d="M74.9385 202.104V195.559L75.6247 195.955V198.87L78.6465 200.616V197.702L79.3328 198.098V204.644L78.6465 204.247V201.32L75.6247 199.573V202.501L74.9385 202.104ZM81.869 206.224C81.5996 206.069 81.3552 205.869 81.1357 205.625C80.9161 205.379 80.7418 205.106 80.6127 204.808C80.4835 204.507 80.419 204.197 80.419 203.878C80.419 203.597 80.4669 203.396 80.5628 203.277C80.6588 203.156 80.787 203.091 80.9475 203.084C81.108 203.076 81.2851 203.104 81.4788 203.167C81.6743 203.229 81.8708 203.302 82.0682 203.386C82.3265 203.497 82.5359 203.589 82.6964 203.663C82.8587 203.735 82.9768 203.769 83.0506 203.762C83.1262 203.757 83.164 203.694 83.164 203.572V203.547C83.164 203.231 83.0893 202.943 82.9399 202.682C82.7923 202.422 82.5682 202.205 82.2675 202.031C81.9557 201.851 81.7112 201.789 81.5341 201.844C81.357 201.899 81.2325 201.996 81.1606 202.133L80.5407 201.519C80.6514 201.285 80.799 201.138 80.9835 201.078C81.1698 201.018 81.3727 201.018 81.5923 201.079C81.8136 201.138 82.0313 201.23 82.2453 201.354C82.3818 201.433 82.5386 201.542 82.7157 201.683C82.8947 201.823 83.0672 201.998 83.2332 202.209C83.4011 202.421 83.5404 202.675 83.6511 202.971C83.7618 203.268 83.8171 203.611 83.8171 204.001V207.235L83.164 206.858V206.193L83.1308 206.174C83.0866 206.255 83.0128 206.326 82.9095 206.388C82.8061 206.449 82.6687 206.473 82.4971 206.459C82.3256 206.446 82.1162 206.367 81.869 206.224ZM81.9686 205.604C82.2269 205.754 82.4446 205.821 82.6217 205.806C82.8006 205.792 82.9353 205.719 83.0257 205.586C83.1179 205.453 83.164 205.285 83.164 205.081V204.39C83.1364 204.413 83.0755 204.413 82.9814 204.39C82.8892 204.367 82.7822 204.332 82.6604 204.285C82.5405 204.237 82.4233 204.188 82.309 204.139C82.1964 204.089 82.1051 204.049 82.035 204.019C81.8653 203.947 81.7066 203.896 81.559 203.869C81.4133 203.84 81.2952 203.856 81.2048 203.916C81.1163 203.976 81.072 204.102 81.072 204.294C81.072 204.556 81.156 204.802 81.3238 205.034C81.4936 205.264 81.7085 205.454 81.9686 205.604ZM86.7358 209.024C86.3373 208.794 85.9942 208.487 85.7064 208.103C85.4186 207.719 85.1973 207.292 85.0423 206.821C84.8873 206.35 84.8098 205.87 84.8098 205.38C84.8098 204.881 84.8892 204.487 85.0478 204.197C85.2083 203.906 85.4315 203.736 85.7175 203.686C86.0053 203.635 86.341 203.72 86.7248 203.942C87.0236 204.115 87.293 204.334 87.5328 204.601C87.7726 204.867 87.9691 205.16 88.1222 205.478C88.2753 205.797 88.3703 206.12 88.4072 206.449L87.7542 206.071C87.7044 205.819 87.5937 205.557 87.4221 205.285C87.2524 205.012 87.0236 204.792 86.7358 204.626C86.4812 204.479 86.258 204.427 86.0662 204.469C85.8761 204.511 85.7276 204.639 85.6206 204.854C85.5155 205.068 85.4629 205.361 85.4629 205.731C85.4629 206.111 85.5146 206.471 85.6179 206.812C85.723 207.154 85.8706 207.457 86.0606 207.723C86.2525 207.989 86.4776 208.197 86.7358 208.346C86.9056 208.444 87.0596 208.499 87.198 208.511C87.3363 208.523 87.4535 208.493 87.5494 208.42C87.6453 208.348 87.7136 208.234 87.7542 208.078L88.4072 208.456C88.3703 208.724 88.279 208.932 88.1333 209.08C87.9894 209.227 87.7984 209.3 87.5605 209.299C87.3243 209.297 87.0494 209.205 86.7358 209.024ZM89.0271 206.04V205.337L92.4806 207.332V208.035L91.0859 207.229V211.435L90.4328 211.058V206.852L89.0271 206.04ZM93.4332 214.633V207.883L94.0641 208.247V209.027L94.1416 209.072C94.1896 209.014 94.256 208.944 94.3408 208.861C94.4276 208.777 94.5512 208.729 94.7117 208.717C94.874 208.705 95.0935 208.778 95.3703 208.938C95.7281 209.145 96.0436 209.431 96.3166 209.795C96.5897 210.159 96.8027 210.576 96.9559 211.043C97.109 211.511 97.1855 212.003 97.1855 212.518C97.1855 213.038 97.109 213.445 96.9559 213.738C96.8027 214.028 96.5906 214.2 96.3194 214.252C96.0482 214.302 95.7355 214.224 95.3813 214.02C95.1083 213.862 94.8897 213.683 94.7255 213.484C94.5613 213.283 94.4349 213.089 94.3464 212.904C94.2578 212.716 94.1896 212.564 94.1416 212.447L94.0863 212.415V215.01L93.4332 214.633ZM94.0752 210.708C94.0752 211.079 94.1222 211.433 94.2163 211.771C94.3104 212.107 94.4478 212.406 94.6286 212.671C94.8094 212.933 95.0308 213.14 95.2928 213.291C95.5658 213.449 95.7936 213.497 95.9763 213.437C96.1608 213.375 96.2991 213.229 96.3914 212.999C96.4854 212.768 96.5325 212.478 96.5325 212.128C96.5325 211.783 96.4864 211.445 96.3941 211.115C96.3037 210.784 96.1663 210.484 95.9818 210.215C95.7992 209.946 95.5695 209.731 95.2928 209.571C95.0271 209.417 94.8039 209.366 94.6231 209.417C94.4423 209.466 94.3058 209.602 94.2136 209.826C94.1213 210.048 94.0752 210.342 94.0752 210.708ZM99.9085 216.636C99.5248 216.414 99.1881 216.114 98.8985 215.736C98.6107 215.359 98.3856 214.933 98.2233 214.46C98.0628 213.988 97.9825 213.499 97.9825 212.992C97.9825 212.48 98.0628 212.08 98.2233 211.792C98.3856 211.504 98.6107 211.338 98.8985 211.293C99.1881 211.25 99.5248 211.339 99.9085 211.561C100.292 211.782 100.628 212.082 100.916 212.459C101.205 212.837 101.43 213.264 101.591 213.738C101.753 214.213 101.834 214.706 101.834 215.218C101.834 215.725 101.753 216.121 101.591 216.406C101.43 216.693 101.205 216.858 100.916 216.902C100.628 216.946 100.292 216.858 99.9085 216.636ZM99.9085 215.958C100.2 216.127 100.44 216.179 100.628 216.115C100.816 216.051 100.955 215.905 101.046 215.676C101.136 215.447 101.181 215.168 101.181 214.84C101.181 214.512 101.136 214.18 101.046 213.845C100.955 213.509 100.816 213.199 100.628 212.916C100.44 212.633 100.2 212.407 99.9085 212.238C99.617 212.07 99.3772 212.018 99.189 212.084C99.0008 212.15 98.8616 212.299 98.7712 212.53C98.6808 212.761 98.6356 213.041 98.6356 213.369C98.6356 213.697 98.6808 214.028 98.7712 214.361C98.8616 214.695 99.0008 215.002 99.189 215.284C99.3772 215.565 99.617 215.79 99.9085 215.958ZM103.484 217.488L105.532 214.874L106.285 215.309V220.218L105.632 219.841V216.044L103.595 218.664L102.831 218.223V213.314L103.484 213.691V217.488ZM105.1 212.988L105.709 213.34C105.709 213.685 105.606 213.908 105.399 214.008C105.193 214.108 104.912 214.056 104.558 213.851C104.209 213.65 103.932 213.379 103.725 213.041C103.52 212.703 103.418 212.361 103.418 212.016L104.027 212.368C104.027 212.534 104.066 212.703 104.146 212.875C104.227 213.047 104.364 213.189 104.558 213.301C104.752 213.413 104.89 213.43 104.973 213.353C105.058 213.276 105.1 213.155 105.1 212.988ZM107.481 220.909V216L108.134 216.378V218.513L108.566 218.762L110.093 217.51L110.934 217.996L109.219 219.37L110.957 222.918L110.115 222.432L108.721 219.555L108.134 219.216V221.287L107.481 220.909ZM112.917 224.166C112.648 224.01 112.403 223.81 112.184 223.566C111.964 223.32 111.79 223.048 111.661 222.75C111.532 222.449 111.467 222.139 111.467 221.819C111.467 221.538 111.515 221.338 111.611 221.219C111.707 221.097 111.835 221.033 111.996 221.025C112.156 221.018 112.333 221.046 112.527 221.109C112.723 221.171 112.919 221.244 113.116 221.328C113.375 221.439 113.584 221.531 113.745 221.605C113.907 221.677 114.025 221.71 114.099 221.704C114.174 221.699 114.212 221.635 114.212 221.514V221.488C114.212 221.173 114.138 220.885 113.988 220.624C113.841 220.364 113.616 220.147 113.316 219.973C113.004 219.793 112.759 219.73 112.582 219.786C112.405 219.841 112.281 219.937 112.209 220.075L111.589 219.461C111.7 219.227 111.847 219.08 112.032 219.02C112.218 218.959 112.421 218.959 112.64 219.02C112.862 219.08 113.08 219.172 113.294 219.295C113.43 219.374 113.587 219.484 113.764 219.625C113.943 219.764 114.115 219.94 114.281 220.151C114.449 220.363 114.589 220.617 114.699 220.913C114.81 221.209 114.865 221.552 114.865 221.942V225.177L114.212 224.799V224.134L114.179 224.115C114.135 224.196 114.061 224.268 113.958 224.329C113.854 224.391 113.717 224.415 113.545 224.401C113.374 224.387 113.164 224.309 112.917 224.166ZM113.017 223.546C113.275 223.695 113.493 223.762 113.67 223.748C113.849 223.734 113.984 223.66 114.074 223.527C114.166 223.395 114.212 223.227 114.212 223.022V222.332C114.185 222.354 114.124 222.354 114.03 222.332C113.937 222.308 113.83 222.273 113.709 222.226C113.589 222.178 113.472 222.13 113.357 222.081C113.245 222.031 113.153 221.991 113.083 221.961C112.914 221.888 112.755 221.838 112.607 221.81C112.462 221.782 112.343 221.797 112.253 221.858C112.165 221.918 112.12 222.043 112.12 222.235C112.12 222.497 112.204 222.744 112.372 222.975C112.542 223.205 112.757 223.396 113.017 223.546Z" fill="#89939A"/>
<path d="M126.079 267.393C129.539 269.645 132.418 272.683 134.482 276.26C136.546 279.836 137.737 283.85 137.957 287.975C137.957 295.543 132.607 298.596 126.008 294.794L61.0013 257.308C57.5471 255.052 54.6731 252.013 52.6125 248.437C50.5518 244.861 49.3626 240.849 49.1414 236.726C49.1414 229.176 54.4917 226.106 61.0904 229.908L126.079 267.393Z" fill="#EFF4FF"/>
<path d="M62.9095 236.887C64.1502 237.624 65.3416 238.441 66.4764 239.333C68.1463 240.656 69.2393 242.575 69.5261 244.688C69.9195 247.464 69.9195 250.283 69.5261 253.059C69.5162 253.415 69.4158 253.762 69.2343 254.068C69.0528 254.374 68.7963 254.628 68.489 254.807C68.1818 254.986 67.8339 255.083 67.4786 255.09C67.1232 255.096 66.7721 255.012 66.4585 254.844C65.2262 254.341 64.0338 253.744 62.8916 253.059C61.6222 252.33 60.4009 251.519 59.2355 250.632C57.581 249.295 56.4918 247.383 56.1858 245.277C55.801 242.499 55.801 239.682 56.1858 236.905C56.1907 236.547 56.288 236.197 56.4683 235.888C56.6486 235.58 56.9057 235.323 57.2146 235.143C57.5235 234.963 57.8737 234.867 58.231 234.863C58.5883 234.859 58.9405 234.947 59.2534 235.12C60.5127 235.621 61.7346 236.211 62.9095 236.887Z" fill="#6098F0"/>
<path d="M62.6242 240.457C63.2 240.841 63.6786 241.354 64.0222 241.955C64.3658 242.556 64.5649 243.229 64.6038 243.92C64.6038 244.795 64.1758 245.313 63.5337 245.331C64.8885 246.788 65.6571 248.695 65.6917 250.686L59.5032 247.116C59.5032 245.223 60.4306 244.135 61.679 244.331C61.0338 243.59 60.6568 242.653 60.6089 241.671C60.6267 240.332 61.5185 239.833 62.6242 240.457Z" fill="white"/>
<path d="M78.2702 255.795L76.3221 251.665L75.6247 251.263V254.267L74.9385 253.87V247.325L75.6247 247.721V250.559L75.9236 250.732L78.1927 249.205L79.0118 249.679L76.7206 251.231L79.0893 256.269L78.2702 255.795ZM81.3024 257.65C80.9187 257.428 80.582 257.128 80.2924 256.75C80.0046 256.373 79.7795 255.947 79.6171 255.474C79.4566 255.002 79.3764 254.513 79.3764 254.006C79.3764 253.494 79.4566 253.094 79.6171 252.806C79.7795 252.518 80.0046 252.352 80.2924 252.307C80.582 252.264 80.9187 252.353 81.3024 252.575C81.6861 252.796 82.0219 253.096 82.3097 253.473C82.5993 253.851 82.8244 254.278 82.9849 254.752C83.1472 255.227 83.2284 255.72 83.2284 256.232C83.2284 256.739 83.1472 257.135 82.9849 257.42C82.8244 257.707 82.5993 257.872 82.3097 257.916C82.0219 257.96 81.6861 257.872 81.3024 257.65ZM81.3024 256.972C81.5939 257.141 81.8337 257.193 82.0219 257.129C82.21 257.065 82.3493 256.919 82.4397 256.69C82.5301 256.461 82.5753 256.182 82.5753 255.854C82.5753 255.526 82.5301 255.194 82.4397 254.859C82.3493 254.523 82.21 254.214 82.0219 253.93C81.8337 253.647 81.5939 253.421 81.3024 253.252C81.0109 253.084 80.7711 253.033 80.5829 253.099C80.3947 253.165 80.2555 253.313 80.1651 253.544C80.0747 253.775 80.0295 254.055 80.0295 254.383C80.0295 254.711 80.0747 255.042 80.1651 255.376C80.2555 255.709 80.3947 256.016 80.5829 256.298C80.7711 256.579 81.0109 256.804 81.3024 256.972ZM87.07 258.081V258.784L84.7234 257.428V256.725L87.07 258.081ZM84.8783 254.705V259.614L84.2253 259.237V254.328L84.8783 254.705ZM87.5681 256.259V261.168L86.915 260.791V255.882L87.5681 256.259ZM88.1824 257.317V256.614L91.6359 258.61V259.313L90.2412 258.507V262.713L89.5881 262.336V258.13L88.1824 257.317ZM93.6186 264.78C93.3493 264.624 93.1048 264.424 92.8853 264.18C92.6658 263.934 92.4914 263.662 92.3623 263.364C92.2331 263.063 92.1686 262.753 92.1686 262.433C92.1686 262.152 92.2165 261.952 92.3125 261.833C92.4084 261.711 92.5366 261.647 92.6971 261.639C92.8576 261.632 93.0347 261.66 93.2284 261.723C93.424 261.785 93.6204 261.858 93.8178 261.942C94.0761 262.053 94.2855 262.145 94.446 262.219C94.6083 262.291 94.7264 262.324 94.8002 262.318C94.8758 262.312 94.9137 262.249 94.9137 262.128V262.102C94.9137 261.787 94.8389 261.499 94.6895 261.237C94.5419 260.977 94.3178 260.761 94.0171 260.587C93.7053 260.407 93.4609 260.344 93.2838 260.4C93.1067 260.455 92.9821 260.551 92.9102 260.689L92.2903 260.075C92.401 259.84 92.5486 259.693 92.7331 259.634C92.9194 259.573 93.1223 259.573 93.3419 259.634C93.5633 259.694 93.7809 259.786 93.9949 259.909C94.1315 259.988 94.2883 260.098 94.4654 260.239C94.6443 260.378 94.8168 260.554 94.9828 260.765C95.1507 260.977 95.29 261.231 95.4007 261.527C95.5114 261.823 95.5667 262.166 95.5667 262.556V265.791L94.9137 265.413V264.748L94.8805 264.729C94.8362 264.81 94.7624 264.881 94.6591 264.943C94.5558 265.005 94.4183 265.029 94.2468 265.015C94.0752 265.001 93.8658 264.923 93.6186 264.78ZM93.7182 264.16C93.9765 264.309 94.1942 264.376 94.3713 264.361C94.5502 264.348 94.6849 264.274 94.7753 264.141C94.8675 264.009 94.9137 263.841 94.9137 263.636V262.946C94.886 262.968 94.8251 262.968 94.731 262.946C94.6388 262.922 94.5318 262.887 94.41 262.84C94.2901 262.792 94.173 262.744 94.0586 262.695C93.9461 262.644 93.8547 262.604 93.7846 262.575C93.6149 262.502 93.4563 262.452 93.3087 262.424C93.1629 262.395 93.0449 262.411 92.9545 262.472C92.8659 262.532 92.8216 262.657 92.8216 262.849C92.8216 263.111 92.9056 263.358 93.0735 263.589C93.2432 263.819 93.4581 264.01 93.7182 264.16ZM96.7587 266.479V261.57L97.4118 261.948V264.083L97.8435 264.332L99.371 263.08L100.212 263.566L98.4965 264.94L100.234 268.488L99.3931 268.002L97.9984 265.125L97.4118 264.786V266.857L96.7587 266.479ZM100.701 264.551V263.848L104.154 265.844V266.547L102.759 265.741V269.947L102.106 269.57V265.364L100.701 264.551ZM105.671 268.497L106.889 269.201C107.387 269.489 107.768 269.855 108.032 270.299C108.295 270.744 108.427 271.19 108.427 271.637C108.427 271.931 108.368 272.164 108.25 272.337C108.132 272.507 107.959 272.598 107.73 272.608C107.501 272.617 107.221 272.525 106.889 272.333L105.107 271.303V266.394L105.76 266.772V270.978L106.889 271.63C107.147 271.779 107.359 271.823 107.525 271.761C107.691 271.7 107.774 271.545 107.774 271.298C107.774 271.038 107.691 270.778 107.525 270.518C107.359 270.258 107.147 270.053 106.889 269.904L105.671 269.201V268.497ZM109.103 273.612V268.703L109.756 269.081V273.99L109.103 273.612Z" fill="#89939A"/>
<g filter="url(#filter10_d_49224_26024)">
<path d="M149.723 94.2531C152.627 96.1386 155.043 98.6859 156.772 101.686C158.502 104.687 159.497 108.055 159.675 111.514V130.525C159.675 136.862 155.181 139.45 149.67 136.237L37.4019 71.369C34.5014 69.4804 32.088 66.9322 30.3586 63.9325C28.6291 60.9327 27.6326 57.5663 27.4503 54.1078V35.0971C27.4503 28.7424 31.9446 26.172 37.4733 29.385L149.723 94.2531Z" fill="black"/>
</g>
<path d="M149.723 94.2531C152.626 96.1386 155.042 98.6859 156.772 101.686C158.502 104.687 159.497 108.055 159.675 111.514V130.525C159.675 136.862 155.18 139.45 149.669 136.237L37.4014 71.369C34.5009 69.4804 32.0876 66.9322 30.3581 63.9325C28.6287 60.9327 27.6321 57.5663 27.4498 54.1078V35.0971C27.4498 28.7424 31.9441 26.172 37.4728 29.385L149.723 94.2531Z" fill="#EFF4FF"/>
<path d="M145.122 121.421C145.425 122.099 145.318 122.724 144.89 122.813L143.713 123.099C143.52 123.123 143.325 123.079 143.16 122.974C142.812 122.758 142.538 122.441 142.376 122.064L139.326 115.281C138.653 115.138 138.008 114.884 137.418 114.531C135.006 112.984 133.174 110.68 132.21 107.98C130.908 104.41 131.443 101.232 133.494 100.34C134.149 100.109 134.85 100.037 135.538 100.13C136.227 100.224 136.883 100.479 137.453 100.875C139.6 102.256 141.289 104.244 142.304 106.588C143.838 110.015 143.678 113.246 142.055 114.638L145.122 121.421ZM139.415 112.103C140.967 111.746 141.359 109.479 140.253 107.052C139.668 105.687 138.686 104.531 137.436 103.731C136.851 103.349 136.144 103.203 135.456 103.321C133.887 103.678 133.512 105.945 134.6 108.355C135.192 109.72 136.172 110.881 137.418 111.693C138.009 112.074 138.722 112.221 139.415 112.103Z" fill="#6098F0"/>
<path d="M46.8227 49.7336V58.4609L45.9076 57.9322V50.1424L42.0999 47.942V55.7318L41.1849 55.2031V46.4758L46.8227 49.7336ZM50.8527 60.9261C50.341 60.6304 49.8921 60.2304 49.5059 59.726C49.1222 59.223 48.8221 58.6561 48.6057 58.0253C48.3917 57.396 48.2847 56.7433 48.2847 56.0671C48.2847 55.3853 48.3917 54.852 48.6057 54.4671C48.8221 54.0837 49.1222 53.8622 49.5059 53.8027C49.8921 53.7446 50.341 53.8634 50.8527 54.159C51.3643 54.4547 51.812 54.854 52.1957 55.357C52.5819 55.8614 52.882 56.4297 53.096 57.0619C53.3124 57.6955 53.4206 58.3532 53.4206 59.035C53.4206 59.7111 53.3124 60.2395 53.096 60.6201C52.882 61.0021 52.5819 61.2222 52.1957 61.2803C51.812 61.3398 51.3643 61.2217 50.8527 60.9261ZM50.8527 60.0227C51.2413 60.2472 51.5611 60.317 51.812 60.2318C52.0629 60.1467 52.2486 59.9515 52.3691 59.6461C52.4896 59.3408 52.5499 58.9693 52.5499 58.5318C52.5499 58.0943 52.4896 57.6518 52.3691 57.2043C52.2486 56.7569 52.0629 56.3441 51.812 55.9662C51.5611 55.5883 51.2413 55.287 50.8527 55.0624C50.464 54.8378 50.1443 54.7695 49.8934 54.8575C49.6425 54.9455 49.4568 55.1436 49.3362 55.4518C49.2157 55.76 49.1554 56.1328 49.1554 56.5703C49.1554 57.0078 49.2157 57.4489 49.3362 57.8935C49.4568 58.3382 49.6425 58.748 49.8934 59.1231C50.1443 59.4982 50.464 59.7981 50.8527 60.0227ZM55.6206 62.062L58.3509 58.5772L59.3545 59.1571V65.7026L58.4837 65.1994V60.1369L55.7682 63.6302L54.7498 63.0417V56.4963L55.6206 56.9995V62.062ZM63.2517 68.091C62.7204 67.784 62.2628 67.3747 61.8791 66.8632C61.4954 66.3517 61.2002 65.782 60.9936 65.154C60.787 64.5261 60.6837 63.8855 60.6837 63.232C60.6837 62.5673 60.7895 62.0417 61.001 61.6555C61.215 61.2678 61.5126 61.0406 61.8939 60.974C62.2776 60.906 62.7253 61.0198 63.2369 61.3154C63.6354 61.5457 63.9945 61.8384 64.3143 62.1937C64.634 62.5489 64.896 62.9389 65.1002 63.3637C65.3043 63.7885 65.431 64.2197 65.4802 64.6572L64.6094 64.154C64.543 63.8173 64.3954 63.4679 64.1667 63.1055C63.9404 62.7418 63.6354 62.4491 63.2517 62.2274C62.9122 62.0312 62.6146 61.9615 62.3588 62.0182C62.1054 62.0735 61.9074 62.2446 61.7647 62.5315C61.6245 62.8169 61.5544 63.2068 61.5544 63.7011C61.5544 64.2068 61.6233 64.687 61.7611 65.1416C61.9013 65.5976 62.098 66.0025 62.3514 66.3563C62.6072 66.7115 62.9073 66.9886 63.2517 67.1876C63.478 67.3184 63.6833 67.3916 63.8678 67.4073C64.0523 67.423 64.2085 67.3826 64.3364 67.286C64.4643 67.1895 64.5553 67.0375 64.6094 66.8302L65.4802 67.3333C65.431 67.6913 65.3092 67.9689 65.1149 68.1663C64.9231 68.3622 64.6685 68.4594 64.3512 68.4579C64.0363 68.4549 63.6698 68.3326 63.2517 68.091ZM66.7531 69.978V63.4325L67.6239 63.9357V66.7823L68.1995 67.1149L70.2361 65.4452L71.3578 66.0934L69.0702 67.9249L71.3873 72.6559L70.2656 72.0078L68.4061 68.1718L67.6239 67.7198V70.4812L66.7531 69.978Z" fill="#89939A"/>
<path d="M62.0476 383.975C80.2499 383.975 95.0057 369.206 95.0057 350.987C95.0057 332.769 80.2499 318 62.0476 318C43.8453 318 29.0895 332.769 29.0895 350.987C29.0895 369.206 43.8453 383.975 62.0476 383.975Z" fill="url(#paint14_radial_49224_26024)"/>
<g style="mix-blend-mode:screen" opacity="0.55">
<path d="M62.0476 383.975C80.2499 383.975 95.0057 369.206 95.0057 350.987C95.0057 332.769 80.2499 318 62.0476 318C43.8453 318 29.0895 332.769 29.0895 350.987C29.0895 369.206 43.8453 383.975 62.0476 383.975Z" fill="white"/>
</g>
<path d="M22.4014 357.806C22.4014 359.924 21.7738 361.995 20.598 363.756C19.4222 365.518 17.751 366.89 15.7957 367.701C13.8404 368.512 11.6888 368.724 9.6131 368.311C7.53737 367.897 5.63072 366.877 4.1342 365.379C2.63768 363.882 1.61851 361.973 1.20562 359.896C0.792729 357.818 1.00463 355.665 1.81454 353.708C2.62445 351.75 3.99601 350.078 5.75573 348.901C7.51545 347.724 9.58428 347.096 11.7007 347.096C14.5387 347.096 17.2604 348.224 19.2672 350.233C21.274 352.241 22.4014 354.966 22.4014 357.806Z" fill="url(#paint15_radial_49224_26024)"/>
<g style="mix-blend-mode:screen" opacity="0.55">
<path d="M22.4014 357.806C22.4014 359.924 21.7738 361.995 20.598 363.756C19.4222 365.518 17.751 366.89 15.7957 367.701C13.8404 368.512 11.6888 368.724 9.6131 368.311C7.53737 367.897 5.63072 366.877 4.1342 365.379C2.63768 363.882 1.61851 361.973 1.20562 359.896C0.792729 357.818 1.00463 355.665 1.81454 353.708C2.62445 351.75 3.99601 350.078 5.75573 348.901C7.51545 347.724 9.58428 347.096 11.7007 347.096C14.5387 347.096 17.2604 348.224 19.2672 350.233C21.274 352.241 22.4014 354.966 22.4014 357.806Z" fill="white"/>
</g>
<path d="M108.346 394.705C117.233 385.81 117.233 371.388 108.346 362.493C99.4588 353.598 85.05 353.598 76.1629 362.493C67.2758 371.388 67.2758 385.81 76.1629 394.705C85.0499 403.6 99.4588 403.6 108.346 394.705Z" fill="url(#paint16_radial_49224_26024)"/>
<g style="mix-blend-mode:screen" opacity="0.55">
<path d="M108.346 394.705C117.233 385.81 117.233 371.388 108.346 362.493C99.4588 353.598 85.05 353.598 76.1629 362.493C67.2758 371.388 67.2758 385.81 76.1629 394.705C85.0499 403.6 99.4588 403.6 108.346 394.705Z" fill="white"/>
</g>
<defs>
<filter id="filter0_b_49224_26024" x="167.043" y="18.925" width="346.732" height="432.678" filterUnits="userSpaceOnUse" color-interpolation-filters="sRGB">
<feFlood flood-opacity="0" result="BackgroundImageFix"/>
<feGaussianBlur in="BackgroundImageFix" stdDeviation="4.5375"/>
<feComposite in2="SourceAlpha" operator="in" result="effect1_backgroundBlur_49224_26024"/>
<feBlend mode="normal" in="SourceGraphic" in2="effect1_backgroundBlur_49224_26024" result="shape"/>
</filter>
<filter id="filter1_f_49224_26024" x="84.8565" y="9.57629" width="376.554" height="469.038" filterUnits="userSpaceOnUse" color-interpolation-filters="sRGB">
<feFlood flood-opacity="0" result="BackgroundImageFix"/>
<feBlend mode="normal" in="SourceGraphic" in2="BackgroundImageFix" result="shape"/>
<feGaussianBlur stdDeviation="12.1" result="effect1_foregroundBlur_49224_26024"/>
</filter>
<filter id="filter2_d_49224_26024" x="371.517" y="255.342" width="46.4637" height="58.932" filterUnits="userSpaceOnUse" color-interpolation-filters="sRGB">
<feFlood flood-opacity="0" result="BackgroundImageFix"/>
<feColorMatrix in="SourceAlpha" type="matrix" values="0 0 0 0 0 0 0 0 0 0 0 0 0 0 0 0 0 0 127 0" result="hardAlpha"/>
<feOffset dx="4.5375" dy="7.5625"/>
<feGaussianBlur stdDeviation="4.5375"/>
<feComposite in2="hardAlpha" operator="out"/>
<feColorMatrix type="matrix" values="0 0 0 0 0 0 0 0 0 0 0 0 0 0 0 0 0 0 0.16 0"/>
<feBlend mode="normal" in2="BackgroundImageFix" result="effect1_dropShadow_49224_26024"/>
<feBlend mode="normal" in="SourceGraphic" in2="effect1_dropShadow_49224_26024" result="shape"/>
</filter>
<filter id="filter3_d_49224_26024" x="371.517" y="300.926" width="46.4637" height="58.9199" filterUnits="userSpaceOnUse" color-interpolation-filters="sRGB">
<feFlood flood-opacity="0" result="BackgroundImageFix"/>
<feColorMatrix in="SourceAlpha" type="matrix" values="0 0 0 0 0 0 0 0 0 0 0 0 0 0 0 0 0 0 127 0" result="hardAlpha"/>
<feOffset dx="4.5375" dy="7.5625"/>
<feGaussianBlur stdDeviation="4.5375"/>
<feComposite in2="hardAlpha" operator="out"/>
<feColorMatrix type="matrix" values="0 0 0 0 0 0 0 0 0 0 0 0 0 0 0 0 0 0 0.16 0"/>
<feBlend mode="normal" in2="BackgroundImageFix" result="effect1_dropShadow_49224_26024"/>
<feBlend mode="normal" in="SourceGraphic" in2="effect1_dropShadow_49224_26024" result="shape"/>
</filter>
<filter id="filter4_d_49224_26024" x="371.517" y="346.463" width="46.4635" height="58.92" filterUnits="userSpaceOnUse" color-interpolation-filters="sRGB">
<feFlood flood-opacity="0" result="BackgroundImageFix"/>
<feColorMatrix in="SourceAlpha" type="matrix" values="0 0 0 0 0 0 0 0 0 0 0 0 0 0 0 0 0 0 127 0" result="hardAlpha"/>
<feOffset dx="4.5375" dy="7.5625"/>
<feGaussianBlur stdDeviation="4.5375"/>
<feComposite in2="hardAlpha" operator="out"/>
<feColorMatrix type="matrix" values="0 0 0 0 0 0 0 0 0 0 0 0 0 0 0 0 0 0 0.16 0"/>
<feBlend mode="normal" in2="BackgroundImageFix" result="effect1_dropShadow_49224_26024"/>
<feBlend mode="normal" in="SourceGraphic" in2="effect1_dropShadow_49224_26024" result="shape"/>
</filter>
<filter id="filter5_d_49224_26024" x="252.401" y="345.233" width="198.797" height="226.254" filterUnits="userSpaceOnUse" color-interpolation-filters="sRGB">
<feFlood flood-opacity="0" result="BackgroundImageFix"/>
<feColorMatrix in="SourceAlpha" type="matrix" values="0 0 0 0 0 0 0 0 0 0 0 0 0 0 0 0 0 0 127 0" result="hardAlpha"/>
<feOffset dx="9.07501" dy="9.07501"/>
<feGaussianBlur stdDeviation="18.15"/>
<feComposite in2="hardAlpha" operator="out"/>
<feColorMatrix type="matrix" values="0 0 0 0 0 0 0 0 0 0 0 0 0 0 0 0 0 0 0.4 0"/>
<feBlend mode="normal" in2="BackgroundImageFix" result="effect1_dropShadow_49224_26024"/>
<feBlend mode="normal" in="SourceGraphic" in2="effect1_dropShadow_49224_26024" result="shape"/>
</filter>
<filter id="filter6_d_49224_26024" x="208.072" y="54.48" width="208.91" height="181.668" filterUnits="userSpaceOnUse" color-interpolation-filters="sRGB">
<feFlood flood-opacity="0" result="BackgroundImageFix"/>
<feColorMatrix in="SourceAlpha" type="matrix" values="0 0 0 0 0 0 0 0 0 0 0 0 0 0 0 0 0 0 127 0" result="hardAlpha"/>
<feOffset dx="9.07501" dy="9.07501"/>
<feGaussianBlur stdDeviation="12.1"/>
<feComposite in2="hardAlpha" operator="out"/>
<feColorMatrix type="matrix" values="0 0 0 0 0 0 0 0 0 0 0 0 0 0 0 0 0 0 0.25 0"/>
<feBlend mode="normal" in2="BackgroundImageFix" result="effect1_dropShadow_49224_26024"/>
<feBlend mode="normal" in="SourceGraphic" in2="effect1_dropShadow_49224_26024" result="shape"/>
</filter>
<filter id="filter7_d_49224_26024" x="188.454" y="132.095" width="170.993" height="207.381" filterUnits="userSpaceOnUse" color-interpolation-filters="sRGB">
<feFlood flood-opacity="0" result="BackgroundImageFix"/>
<feColorMatrix in="SourceAlpha" type="matrix" values="0 0 0 0 0 0 0 0 0 0 0 0 0 0 0 0 0 0 127 0" result="hardAlpha"/>
<feOffset dx="9.07501" dy="9.07501"/>
<feGaussianBlur stdDeviation="12.1"/>
<feComposite in2="hardAlpha" operator="out"/>
<feColorMatrix type="matrix" values="0 0 0 0 0 0 0 0 0 0 0 0 0 0 0 0 0 0 0.25 0"/>
<feBlend mode="normal" in2="BackgroundImageFix" result="effect1_dropShadow_49224_26024"/>
<feBlend mode="normal" in="SourceGraphic" in2="effect1_dropShadow_49224_26024" result="shape"/>
</filter>
<filter id="filter8_f_49224_26024" x="209.924" y="242.863" width="160.305" height="148.637" filterUnits="userSpaceOnUse" color-interpolation-filters="sRGB">
<feFlood flood-opacity="0" result="BackgroundImageFix"/>
<feBlend mode="normal" in="SourceGraphic" in2="BackgroundImageFix" result="shape"/>
<feGaussianBlur stdDeviation="22.6875" result="effect1_foregroundBlur_49224_26024"/>
</filter>
<filter id="filter9_d_49224_26024" x="11.2689" y="60.775" width="189.006" height="373.669" filterUnits="userSpaceOnUse" color-interpolation-filters="sRGB">
<feFlood flood-opacity="0" result="BackgroundImageFix"/>
<feColorMatrix in="SourceAlpha" type="matrix" values="0 0 0 0 0 0 0 0 0 0 0 0 0 0 0 0 0 0 127 0" result="hardAlpha"/>
<feOffset dx="9.07501" dy="9.07501"/>
<feGaussianBlur stdDeviation="18.15"/>
<feComposite in2="hardAlpha" operator="out"/>
<feColorMatrix type="matrix" values="0 0 0 0 0 0 0 0 0 0 0 0 0 0 0 0 0 0 0.4 0"/>
<feBlend mode="normal" in2="BackgroundImageFix" result="effect1_dropShadow_49224_26024"/>
<feBlend mode="normal" in="SourceGraphic" in2="effect1_dropShadow_49224_26024" result="shape"/>
</filter>
<filter id="filter10_d_49224_26024" x="0.225298" y="0.774981" width="204.825" height="182.219" filterUnits="userSpaceOnUse" color-interpolation-filters="sRGB">
<feFlood flood-opacity="0" result="BackgroundImageFix"/>
<feColorMatrix in="SourceAlpha" type="matrix" values="0 0 0 0 0 0 0 0 0 0 0 0 0 0 0 0 0 0 127 0" result="hardAlpha"/>
<feOffset dx="9.07501" dy="9.07501"/>
<feGaussianBlur stdDeviation="18.15"/>
<feComposite in2="hardAlpha" operator="out"/>
<feColorMatrix type="matrix" values="0 0 0 0 0 0 0 0 0 0 0 0 0 0 0 0 0 0 0.4 0"/>
<feBlend mode="normal" in2="BackgroundImageFix" result="effect1_dropShadow_49224_26024"/>
<feBlend mode="normal" in="SourceGraphic" in2="effect1_dropShadow_49224_26024" result="shape"/>
</filter>
<radialGradient id="paint0_radial_49224_26024" cx="0" cy="0" r="1" gradientUnits="userSpaceOnUse" gradientTransform="translate(424.882 114.722) scale(62.5455 62.6011)">
<stop stop-color="#F8F9F9"/>
<stop offset="0.15" stop-color="#F1F2F2"/>
<stop offset="0.36" stop-color="#DDDEDF"/>
<stop offset="0.62" stop-color="#BDBEBF"/>
<stop offset="0.91" stop-color="#909193"/>
<stop offset="1" stop-color="#808183"/>
</radialGradient>
<radialGradient id="paint1_radial_49224_26024" cx="0" cy="0" r="1" gradientUnits="userSpaceOnUse" gradientTransform="translate(470.599 161.647) scale(43.1594 43.1978)">
<stop stop-color="#F8F9F9"/>
<stop offset="0.15" stop-color="#F1F2F2"/>
<stop offset="0.36" stop-color="#DDDEDF"/>
<stop offset="0.62" stop-color="#BDBEBF"/>
<stop offset="0.91" stop-color="#909193"/>
<stop offset="1" stop-color="#808183"/>
</radialGradient>
<radialGradient id="paint2_radial_49224_26024" cx="0" cy="0" r="1" gradientUnits="userSpaceOnUse" gradientTransform="translate(527.544 141.333) scale(11.4319 11.4421)">
<stop stop-color="#F8F9F9"/>
<stop offset="0.15" stop-color="#F1F2F2"/>
<stop offset="0.36" stop-color="#DDDEDF"/>
<stop offset="0.62" stop-color="#BDBEBF"/>
<stop offset="0.91" stop-color="#909193"/>
<stop offset="1" stop-color="#808183"/>
</radialGradient>
<linearGradient id="paint3_linear_49224_26024" x1="340.409" y1="75.4264" x2="340.409" y2="384.058" gradientUnits="userSpaceOnUse">
<stop stop-color="#8B68FF"/>
<stop offset="0.01" stop-color="#8A67FE" stop-opacity="0.99"/>
<stop offset="0.38" stop-color="#7553E7" stop-opacity="0.57"/>
<stop offset="0.68" stop-color="#6543D6" stop-opacity="0.26"/>
<stop offset="0.9" stop-color="#5C3ACB" stop-opacity="0.07"/>
<stop offset="1" stop-color="#5836C7" stop-opacity="0"/>
</linearGradient>
<linearGradient id="paint4_linear_49224_26024" x1="110.608" y1="245.104" x2="440.1" y2="245.104" gradientUnits="userSpaceOnUse">
<stop stop-color="#A3AEEB"/>
<stop offset="1" stop-color="#A3BBE8"/>
</linearGradient>
<linearGradient id="paint5_linear_49224_26024" x1="429.809" y1="515.179" x2="347.845" y2="107.809" gradientUnits="userSpaceOnUse">
<stop stop-color="#0070E0"/>
<stop offset="1" stop-color="#00A5FF"/>
</linearGradient>
<linearGradient id="paint6_linear_49224_26024" x1="284.691" y1="355.119" x2="406.532" y2="552.429" gradientUnits="userSpaceOnUse">
<stop stop-color="#FF63AA"/>
<stop offset="1" stop-color="#FF4174"/>
</linearGradient>
<linearGradient id="paint7_linear_49224_26024" x1="226.211" y1="135.592" x2="385.081" y2="135.592" gradientUnits="userSpaceOnUse">
<stop stop-color="#A3AEEB"/>
<stop offset="1" stop-color="#A3BBE8"/>
</linearGradient>
<linearGradient id="paint8_linear_49224_26024" x1="340.405" y1="134.806" x2="373.339" y2="202.633" gradientUnits="userSpaceOnUse">
<stop stop-color="#FF63AA"/>
<stop offset="1" stop-color="#FF4174"/>
</linearGradient>
<linearGradient id="paint9_linear_49224_26024" x1="202.187" y1="227.45" x2="325.049" y2="227.45" gradientUnits="userSpaceOnUse">
<stop stop-color="#0070E0"/>
<stop offset="1" stop-color="#00A5FF"/>
</linearGradient>
<linearGradient id="paint10_linear_49224_26024" x1="255.906" y1="314.309" x2="325.407" y2="314.309" gradientUnits="userSpaceOnUse">
<stop stop-color="#A3AEEB"/>
<stop offset="1" stop-color="#A3BBE8"/>
</linearGradient>
<linearGradient id="paint11_linear_49224_26024" x1="197.944" y1="344.28" x2="255.977" y2="344.28" gradientUnits="userSpaceOnUse">
<stop stop-color="#0070E0"/>
<stop offset="1" stop-color="#00A5FF"/>
</linearGradient>
<linearGradient id="paint12_linear_49224_26024" x1="96.1707" y1="71.4861" x2="97.0998" y2="370.158" gradientUnits="userSpaceOnUse">
<stop stop-color="#8B68FF"/>
<stop offset="0.61" stop-color="#6947DA"/>
<stop offset="1" stop-color="#5836C7"/>
</linearGradient>
<linearGradient id="paint13_linear_49224_26024" x1="45.8416" y1="316.321" x2="129.806" y2="316.321" gradientUnits="userSpaceOnUse">
<stop stop-color="#0070E0"/>
<stop offset="1" stop-color="#00A5FF"/>
</linearGradient>
<radialGradient id="paint14_radial_49224_26024" cx="0" cy="0" r="1" gradientUnits="userSpaceOnUse" gradientTransform="translate(53.1304 330.834) scale(45.1212 45.1613)">
<stop stop-color="#F8F9F9"/>
<stop offset="0.15" stop-color="#F1F2F2"/>
<stop offset="0.36" stop-color="#DDDEDF"/>
<stop offset="0.62" stop-color="#BDBEBF"/>
<stop offset="0.91" stop-color="#909193"/>
<stop offset="1" stop-color="#808183"/>
</radialGradient>
<radialGradient id="paint15_radial_49224_26024" cx="0" cy="0" r="1" gradientUnits="userSpaceOnUse" gradientTransform="translate(8.74016 351.237) scale(14.6956 14.7087)">
<stop stop-color="#F8F9F9"/>
<stop offset="0.15" stop-color="#F1F2F2"/>
<stop offset="0.36" stop-color="#DDDEDF"/>
<stop offset="0.62" stop-color="#BDBEBF"/>
<stop offset="0.91" stop-color="#909193"/>
<stop offset="1" stop-color="#808183"/>
</radialGradient>
<radialGradient id="paint16_radial_49224_26024" cx="0" cy="0" r="1" gradientUnits="userSpaceOnUse" gradientTransform="translate(86.0696 364.683) scale(31.139 31.1667)">
<stop stop-color="#F8F9F9"/>
<stop offset="0.15" stop-color="#F1F2F2"/>
<stop offset="0.36" stop-color="#DDDEDF"/>
<stop offset="0.62" stop-color="#BDBEBF"/>
<stop offset="0.91" stop-color="#909193"/>
<stop offset="1" stop-color="#808183"/>
</radialGradient>
</defs>
</svg>
